<svg width="77" height="72" viewBox="0 0 77 72" fill="none" xmlns="http://www.w3.org/2000/svg">
<path d="M76.3414 59.9768V63.5673L58.4054 71.115H18.6828L1.00012 63.4283V59.9768H4.20479H25.0794V64.7178H52.2494V59.9768H73.1367H76.3414Z" fill="#D3E7FF"/>
<path d="M26.498 66.374H53.782V61.5192H74.5427H76.3413V59.9768H73.1367H52.2494V64.7178H26.498V66.374Z" fill="#D3E7FF"/>
<path d="M2.53279 61.5192H5.73745H25.0794V59.9768H4.20479H1.00012V63.4283L2.53279 64.073V61.5192Z" fill="#D3E7FF"/>
<path d="M52.3761 59.9768H25.0795V64.8316H52.3761V59.9768Z" fill="white"/>
<path d="M26.4981 61.3928H52.2494V59.9768H25.0795V64.7178H26.4981V61.3928Z" fill="white"/>
<path d="M73.1367 53.5923V59.9894H4.20477V17.1434C4.20477 14.1977 6.5101 11.8967 9.46143 11.8967H15.4781V35.9431H61.8634V12.0232H67.88C70.8314 12.0232 73.1367 14.3241 73.1367 17.2699V53.5923Z" fill="#D3E7FF"/>
<path d="M17.2641 37.7258H63.776V13.8185H69.7927C70.692 13.8185 71.5914 14.0713 72.3514 14.4632C71.452 12.9335 69.7927 11.9094 67.8674 11.9094H61.8507V35.9558H17.2641V37.751V37.7258Z" fill="#D3E7FF"/>
<path d="M6.1175 55.3749V19.0525C6.1175 16.1067 8.42283 13.8058 11.3742 13.8058H15.4782V12.0105H9.46149C6.51016 12.0105 4.20483 14.3115 4.20483 17.2572V59.9768H6.13016V55.3749H6.1175Z" fill="#D3E7FF"/>
<path d="M61.8634 12.0232V36.0696H38.6707V9.4694C38.6707 4.61461 42.648 0.77124 47.6387 0.77124H61.8634V12.0232ZM56.86 24.805V21.6064H53.5287V24.805H56.86ZM51.996 24.805V21.6064H48.6647V24.805H51.996ZM46.9927 24.805V21.6064H43.6614V24.805H46.9927Z" fill="white"/>
<path d="M40.0767 10.9992C40.0767 6.14438 44.054 2.301 49.0447 2.301H61.8634V0.77124H47.6387C42.6354 0.77124 38.6707 4.61461 38.6707 9.4694V35.9431H40.0767V10.9992Z" fill="white"/>
<path d="M38.6707 9.4694V35.9431H15.4781V0.77124H29.7027C34.6934 0.77124 38.6707 4.61461 38.6707 9.4694Z" fill="white"/>
<path d="M16.8841 13.553V2.301H31.1088C33.4141 2.301 35.4661 3.07221 36.9988 4.47554C35.4661 2.301 32.7681 0.77124 29.6901 0.77124H15.4655V36.0696H16.9981V13.553H16.8715H16.8841Z" fill="white"/>
<path d="M33.7941 10.3544H20.4688V18.4078H33.7941V10.3544Z" fill="#D3E7FF"/>
<path d="M21.8874 12.0232H33.6674V10.3544H20.4688V18.4204H21.8874V12.0232Z" fill="#D3E7FF"/>
<path d="M56.9867 21.619H53.6554V24.8176H56.9867V21.619Z" fill="#464646"/>
<path d="M51.9961 21.619H48.6647V24.8176H51.9961V21.619Z" fill="#464646"/>
<path d="M46.9928 21.619H43.6614V24.8176H46.9928V21.619Z" fill="#464646"/>
<path d="M45.8401 51.9235H42.6354V55.1221H45.8401V51.9235Z" fill="#464646"/>
<path d="M39.4434 51.9235H36.2388V55.1221H39.4434V51.9235Z" fill="#464646"/>
<path d="M33.0341 51.9235H29.8294V55.1221H33.0341V51.9235Z" fill="#464646"/>
<path d="M58.4054 71.8736H18.6828C18.5561 71.8736 18.4295 71.8736 18.4295 71.7471L0.734144 64.073C0.480811 63.9466 0.227478 63.6938 0.227478 63.3018V59.724C0.227478 59.3447 0.607478 58.9528 1.00014 58.9528H4.20481C4.58481 58.9528 4.97747 59.332 4.97747 59.724C4.97747 60.1159 4.59747 60.4952 4.20481 60.4952H1.77281V62.6697L18.8095 70.3438H58.1521L75.4547 63.049V60.748H73.0227C72.6427 60.748 72.2501 60.3687 72.2501 59.9768C72.2501 59.5849 72.6301 59.2056 73.0227 59.2056H76.2274C76.6074 59.2056 77.0001 59.5849 77.0001 59.9768V63.6811C77.0001 64.0604 76.7467 64.3259 76.4934 64.4523L58.5574 72C58.5574 71.9157 58.5152 71.8736 58.4308 71.8736H58.4054Z" fill="#464646"/>
<path d="M52.2494 65.4764H25.0794C24.6994 65.4764 24.3068 65.0971 24.3068 64.7052V59.8504C24.3068 59.4711 24.6868 59.0792 25.0794 59.0792C25.4721 59.0792 25.8521 59.4585 25.8521 59.8504V63.8202H51.4767V59.8504C51.4767 59.4711 51.8567 59.0792 52.2494 59.0792C52.6421 59.0792 53.0221 59.4585 53.0221 59.8504V64.7052C53.1487 65.0845 52.7687 65.4764 52.2494 65.4764Z" fill="#464646"/>
<path d="M73.1367 60.748H4.20473C3.82473 60.748 3.43207 60.3687 3.43207 59.9768V17.1434C3.43207 13.8184 6.1174 11.1381 9.44873 11.1381H15.4654C15.8454 11.1381 16.2381 11.5174 16.2381 11.9093C16.2381 12.3013 15.8581 12.6805 15.4654 12.6805H9.44873C7.01673 12.6805 4.96473 14.7286 4.96473 17.156V59.1044H72.2373V17.1434C72.2373 14.716 70.1853 12.6679 67.7533 12.6679H61.7367C61.3567 12.6679 60.964 12.2886 60.964 11.8967C60.964 11.5048 61.344 11.1255 61.7367 11.1255H67.7533C71.0847 11.1255 73.77 13.8057 73.77 17.1308V59.8503C73.8967 60.356 73.5167 60.748 73.124 60.748H73.1367Z" fill="#464646"/>
<path d="M38.6708 36.7017H15.4781C15.0981 36.7017 14.7054 36.3224 14.7054 35.9305V0.771203C14.7054 0.391923 15.0854 0 15.4781 0H29.7028C35.0861 0 39.5701 4.22265 39.5701 9.46936C39.5701 9.84864 39.1901 10.2406 38.7974 10.2406C38.4048 10.2406 38.0248 9.86128 38.0248 9.46936C38.0248 5.12028 34.3134 1.54241 29.8294 1.54241H16.2508V35.1845H38.6708C39.0508 35.1845 39.4434 35.5638 39.4434 35.9557C39.4434 36.3477 39.0634 36.727 38.6708 36.727V36.7017Z" fill="#464646"/>
<path d="M61.8634 36.7017H38.6707C38.2907 36.7017 37.8981 36.3224 37.8981 35.9305V9.46936C37.8981 4.22265 42.2554 0 47.7654 0H61.99C62.37 0 62.7627 0.37928 62.7627 0.771203V35.9431C62.7627 36.3224 62.3827 36.7143 61.8634 36.7143V36.7017ZM39.4307 35.1719H61.0907V1.52976H47.6387C43.1547 1.52976 39.4434 5.10764 39.4434 9.45672V35.1593L39.4307 35.1719Z" fill="#464646"/>
<path d="M33.6674 19.1789H20.4688C20.0888 19.1789 19.6961 18.7996 19.6961 18.4077V10.3543C19.6961 9.97505 20.0761 9.58313 20.4688 9.58313H33.7941C34.1741 9.58313 34.5668 9.96241 34.5668 10.3543V18.4077C34.4401 18.787 34.1868 19.1789 33.6674 19.1789ZM21.2414 17.5227H32.9074V11.1255H21.2414V17.5227Z" fill="#464646"/>
<path d="M33.6674 23.92H20.4688C20.0888 23.92 19.6961 23.5407 19.6961 23.1488C19.6961 22.7568 20.0761 22.3776 20.4688 22.3776H33.7941C34.1741 22.3776 34.5668 22.7568 34.5668 23.1488C34.4401 23.528 34.1868 23.92 33.6674 23.92Z" fill="#464646"/>
<path d="M33.6674 28.7747H20.4688C20.0888 28.7747 19.6961 28.3954 19.6961 28.0035C19.6961 27.6116 20.0761 27.2323 20.4688 27.2323H33.7941C34.1741 27.2323 34.5668 27.6116 34.5668 28.0035C34.4401 28.3828 34.1868 28.7747 33.6674 28.7747Z" fill="#464646"/>
<path d="M56.8601 28.7747H43.6615C43.2815 28.7747 42.8888 28.3954 42.8888 28.0035C42.8888 27.6116 43.2688 27.2323 43.6615 27.2323H56.9868C57.3668 27.2323 57.7594 27.6116 57.7594 28.0035C57.7594 28.3954 57.3794 28.7747 56.8601 28.7747Z" fill="#464646"/>
<path d="M56.8601 19.179H43.6615C43.2815 19.179 42.8888 18.7997 42.8888 18.4078C42.8888 18.0159 43.2688 17.6366 43.6615 17.6366H56.9868C57.3668 17.6366 57.7594 18.0159 57.7594 18.4078C57.7594 18.7997 57.3794 19.179 56.8601 19.179Z" fill="#464646"/>
<path d="M56.8601 14.3241H43.6615C43.2815 14.3241 42.8888 13.9449 42.8888 13.5529C42.8888 13.161 43.2688 12.7817 43.6615 12.7817H56.9868C57.3668 12.7817 57.7594 13.161 57.7594 13.5529C57.7594 13.9449 57.3794 14.3241 56.8601 14.3241Z" fill="#464646"/>
<path d="M25.0794 54.3509H4.20473C3.82473 54.3509 3.43207 53.9716 3.43207 53.5797C3.43207 53.1878 3.81207 52.8085 4.20473 52.8085H25.092C25.472 52.8085 25.8647 53.1878 25.8647 53.5797C25.8647 53.9716 25.4847 54.3509 25.092 54.3509H25.0794Z" fill="#464646"/>
<path d="M73.1367 54.3509H50.7168C50.3368 54.3509 49.9441 53.9716 49.9441 53.5797C49.9441 53.1878 50.3241 52.8085 50.7168 52.8085H73.1367C73.5167 52.8085 73.9094 53.1878 73.9094 53.5797C73.9094 53.9716 73.5294 54.3509 73.1367 54.3509Z" fill="#464646"/>
</svg>
