<svg width="87" height="74" viewBox="0 0 87 74" fill="none" xmlns="http://www.w3.org/2000/svg">
<path d="M67.2376 17.5032V39.8879C59.4569 40.7821 53.1702 46.851 52.4305 54.5618H1.85583V17.5032H67.2524H67.2376Z" fill="#D3E7FF"/>
<path d="M3.49777 19.2769H67.2376V17.5032H1.85583V54.5765H3.49777V19.2769Z" fill="#D3E7FF"/>
<path d="M69.1902 39.7412C78.4649 39.7412 86.0977 47.1588 86.0977 56.4968C86.0977 65.8347 78.6128 73.2523 69.1902 73.2523C61.8532 73.2523 55.5665 68.6493 53.3329 62.1259C52.7264 60.3521 52.4305 58.5637 52.4305 56.4968C52.4305 55.9104 52.4305 55.3094 52.5785 54.5764C53.4808 46.8656 59.6048 40.6354 67.3855 39.9025C67.8293 39.7559 68.5837 39.7559 69.1754 39.7559L69.1902 39.7412Z" fill="#D3E7FF"/>
<path d="M55.1227 64.2076C54.5162 62.4339 54.2204 60.6454 54.2204 58.5785C54.2204 57.9921 54.2204 57.3911 54.3683 56.6581C55.2707 48.9473 61.3946 42.7171 69.1754 41.9695C69.7671 41.9695 70.3735 41.8229 71.1279 41.8229C75.7727 41.8229 79.9589 43.7433 83.0949 46.7191C80.1068 42.424 75.0183 39.5947 69.3233 39.5947C68.7316 39.5947 68.1251 39.5947 67.3855 39.7413C59.6048 40.6355 53.3181 46.7045 52.5785 54.4152C52.5785 55.0016 52.4305 55.6026 52.4305 56.3503C52.4305 58.2706 52.7264 60.2057 53.3329 61.9794C54.2352 64.3542 55.5813 66.4212 57.2232 68.2096C56.3209 66.8756 55.7292 65.5416 55.1227 64.2076Z" fill="#D3E7FF"/>
<path d="M53.3329 61.9794H1.85583V54.5618H52.4305C52.4305 55.1481 52.2826 55.7492 52.2826 56.4821C52.2826 58.2559 52.7264 60.1909 53.3329 61.9647V61.9794Z" fill="white"/>
<path d="M3.34985 56.2037H52.2826C52.2826 55.6173 52.2826 55.1629 52.4305 54.5765H1.85583V61.9941H3.34985V56.2037Z" fill="white"/>
<path d="M48.6882 41.515H43.0079V47.1442H48.6882V41.515Z" fill="white"/>
<path d="M37.4607 41.515H31.7805V47.1442H37.4607V41.515Z" fill="white"/>
<path d="M26.2334 41.515H20.5532V47.1442H26.2334V41.515Z" fill="white"/>
<path d="M15.0209 41.515H9.3407V47.1442H15.0209V41.515Z" fill="white"/>
<path d="M15.0209 24.9061H9.3407V30.5353H15.0209V24.9061Z" fill="white"/>
<path d="M10.8347 26.548H14.873V24.9061H9.3407V30.4034H10.8347V26.548Z" fill="white"/>
<path d="M26.2334 24.9061H20.5532V30.5353H26.2334V24.9061Z" fill="white"/>
<path d="M37.4607 24.9061H31.7805V30.5353H37.4607V24.9061Z" fill="white"/>
<path d="M48.6882 24.9061H43.0079V30.5353H48.6882V24.9061Z" fill="white"/>
<path d="M59.9006 24.9061H54.2203V30.5353H59.9006V24.9061Z" fill="white"/>
<path d="M59.7675 0.747681H52.2826V8.16527H59.7675V0.747681Z" fill="#D3E7FF"/>
<path d="M53.7766 2.37486H59.7675V0.747681H52.2826V8.15061H53.7766V2.37486Z" fill="#D3E7FF"/>
<path d="M16.8256 0.747681H9.3407V8.16527H16.8256V0.747681Z" fill="#D3E7FF"/>
<path d="M10.6868 2.37486H16.8108V0.747681H9.3407V8.15061H10.6868V2.37486Z" fill="#D3E7FF"/>
<path d="M67.2376 8.15063V17.5032H1.85583V8.15063H9.34071H16.8108H52.2826H59.7675H67.2376Z" fill="white"/>
<path d="M3.49777 10.0857H10.9827H18.4675H54.0725H61.5574H67.2376V8.15063H59.7675H52.2826H16.8108H9.34071H1.85583V17.5032H3.49777V10.0857Z" fill="white"/>
<path d="M82.2073 54.5765H78.4648V58.2853H82.2073V54.5765Z" fill="#464646"/>
<path d="M70.98 65.6882H67.2375V69.397H70.98V65.6882Z" fill="#464646"/>
<path d="M70.98 43.4501H67.2375V47.1589H70.98V43.4501Z" fill="#464646"/>
<path d="M59.7675 54.5765H56.025V58.2853H59.7675V54.5765Z" fill="#464646"/>
<path d="M1.85582 55.456C1.41205 55.456 0.953491 55.0162 0.953491 54.5617V17.5031C0.953491 17.0633 1.39726 16.6089 1.85582 16.6089C2.31438 16.6089 2.75815 16.9021 2.75815 17.5031V54.5764C2.75815 55.0162 2.31438 55.4706 1.85582 55.4706V55.456Z" fill="#464646"/>
<path d="M67.2375 40.782C66.7938 40.782 66.3352 40.3422 66.3352 39.8878V17.5031C66.3352 17.0633 66.779 16.6089 67.2375 16.6089C67.6961 16.6089 68.1399 17.0487 68.1399 17.5031V39.8878C68.2878 40.3276 67.844 40.782 67.2375 40.782Z" fill="#464646"/>
<path d="M67.2376 18.3827H1.85582C1.41205 18.3827 0.953491 17.943 0.953491 17.4885V8.15056C0.953491 7.71079 1.39726 7.25635 1.85582 7.25635H9.3407C9.78446 7.25635 10.243 7.69613 10.243 8.15056C10.243 8.605 9.79926 9.04478 9.3407 9.04478H2.74335V16.4624H66.3352V9.04478H59.7527C59.3089 9.04478 58.8504 8.605 58.8504 8.15056C58.8504 7.69613 59.2941 7.25635 59.7527 7.25635H67.2376C67.6813 7.25635 68.1399 7.69613 68.1399 8.15056V17.4885C68.2878 17.9283 67.844 18.3827 67.2376 18.3827Z" fill="#464646"/>
<path d="M52.2826 9.19138H16.8108C16.367 9.19138 15.9084 8.75161 15.9084 8.29717C15.9084 7.84273 16.3522 7.40295 16.8108 7.40295H52.4305C52.8743 7.40295 53.3328 7.84273 53.3328 8.29717C53.3328 8.75161 52.8891 9.19138 52.2826 9.19138Z" fill="#464646"/>
<path d="M53.3328 62.8736H1.85582C1.41205 62.8736 0.953491 62.4338 0.953491 61.9794V54.5618C0.953491 54.122 1.39726 53.6676 1.85582 53.6676H52.4305C52.8743 53.6676 53.3328 54.1074 53.3328 54.5618C53.3328 55.0163 52.8891 55.456 52.4305 55.456H2.74335V61.0852H53.3181C53.7618 61.0852 54.2204 61.525 54.2204 61.9794C54.2204 62.4338 53.7766 62.8736 53.3181 62.8736H53.3328Z" fill="#464646"/>
<path d="M69.1901 74C61.7052 74 54.9748 69.2504 52.4305 62.2872C51.8388 60.3522 51.3802 58.4318 51.3802 56.3502C51.3802 55.7638 51.3802 55.0162 51.5282 54.4152C51.9719 50.4132 53.7766 46.7044 56.6167 43.8898C59.4568 41.0752 63.1993 39.2868 67.2375 38.847C67.844 38.847 68.5836 38.7004 69.1901 38.7004C78.9234 38.7004 87 46.5578 87 56.3502C87 66.1426 78.9234 74 69.1901 74ZM69.1901 40.6355C68.5984 40.6355 67.9919 40.6355 67.4003 40.7821C60.0633 41.5297 54.2352 47.452 53.3328 54.723C53.3328 55.3094 53.1849 55.9104 53.1849 56.4968C53.1849 58.2706 53.4807 60.059 54.0872 61.6862C56.3356 67.9164 62.3117 72.2115 69.057 72.2115C77.888 72.2115 84.9143 65.0871 84.9143 56.4968C84.9143 47.9065 77.888 40.6355 69.2049 40.6355H69.1901Z" fill="#464646"/>
<path d="M14.873 31.4441H9.19273C8.74897 31.4441 8.29041 31.0043 8.29041 30.5499V24.9207C8.29041 24.4809 8.73417 24.0265 9.19273 24.0265H14.873C15.3167 24.0265 15.7753 24.4663 15.7753 24.9207V30.5499C15.9232 30.9896 15.4794 31.4441 14.873 31.4441ZM10.2282 29.5091H13.9706V25.8003H10.2282V29.5091Z" fill="#464646"/>
<path d="M16.8108 9.19136H9.32591C8.88214 9.19136 8.42358 8.75158 8.42358 8.29715V0.894215C8.42358 0.454437 8.86735 0 9.32591 0H16.8108C17.2546 0 17.7131 0.439778 17.7131 0.894215V8.31181C17.7131 8.75158 17.2694 9.20602 16.8108 9.20602V9.19136ZM10.2282 7.271H15.9085V1.62718H10.2282V7.25634V7.271Z" fill="#464646"/>
<path d="M59.7675 9.19136H52.2826C51.8388 9.19136 51.3802 8.75158 51.3802 8.29715V0.894215C51.3802 0.454437 51.824 0 52.2826 0H59.7675C60.2112 0 60.6698 0.439778 60.6698 0.894215V8.31181C60.8177 8.75158 60.3739 9.20602 59.7675 9.20602V9.19136ZM53.3328 7.271H59.013V1.62718H53.3328V7.25634V7.271Z" fill="#464646"/>
<path d="M69.1902 57.3911C69.0422 57.3911 68.8943 57.391 68.7464 57.2445L63.0662 53.5357C62.6224 53.2425 62.4597 52.6414 62.7703 52.2017C63.0662 51.7619 63.6727 51.6153 64.1164 51.9085L69.205 55.3241L78.0359 50.1347C78.4797 49.8415 79.0862 49.9881 79.382 50.4279C79.6779 50.8677 79.53 51.4687 79.0862 51.7619L69.6635 57.3911C69.5156 57.2445 69.3677 57.3911 69.2198 57.3911H69.1902Z" fill="#464646"/>
<path d="M22.0472 26.548H26.1003V24.9061H20.5532V30.4034H22.0472V26.548Z" fill="white"/>
<path d="M33.1266 26.548H37.1649V24.9061H31.6326V30.4034H33.1266V26.548Z" fill="white"/>
<path d="M10.8347 43.1569H14.873V41.515H9.3407V47.1588H10.8347V43.1569Z" fill="white"/>
<path d="M22.0472 43.1569H26.1003V41.515H20.5532V47.1588H22.0472V43.1569Z" fill="white"/>
<path d="M33.1266 43.1569H37.1649V41.515H31.6326V47.1588H33.1266V43.1569Z" fill="white"/>
<path d="M44.502 43.1569H48.5402V41.515H43.0079V47.1588H44.502V43.1569Z" fill="white"/>
<path d="M44.502 26.548H48.5402V24.9061H43.0079V30.4034H44.502V26.548Z" fill="white"/>
<path d="M55.8771 26.548H59.9154V24.9061H54.2203V30.4034H55.8771V26.548Z" fill="white"/>
<path d="M26.1004 31.4441H20.4201C19.9764 31.4441 19.5178 31.0043 19.5178 30.5499V24.9207C19.5178 24.4809 19.9616 24.0265 20.4201 24.0265H26.1004C26.5441 24.0265 27.0027 24.4663 27.0027 24.9207V30.5499C27.1506 30.9896 26.7069 31.4441 26.1004 31.4441ZM21.4556 29.5091H25.198V25.8003H21.4556V29.5091Z" fill="#464646"/>
<path d="M37.3128 31.4441H31.6326C31.1888 31.4441 30.7302 31.0043 30.7302 30.5499V24.9207C30.7302 24.4809 31.174 24.0265 31.6326 24.0265H37.3128C37.7565 24.0265 38.2151 24.4663 38.2151 24.9207V30.5499C38.363 30.9896 37.9193 31.4441 37.3128 31.4441ZM32.6828 29.5091H36.4252V25.8003H32.6828V29.5091Z" fill="#464646"/>
<path d="M48.5402 31.4441H42.86C42.4162 31.4441 41.9576 31.0043 41.9576 30.5499V24.9207C41.9576 24.4809 42.4014 24.0265 42.86 24.0265H48.5402C48.984 24.0265 49.4425 24.4663 49.4425 24.9207V30.5499C49.5904 30.9896 49.1467 31.4441 48.5402 31.4441ZM43.8954 29.5091H47.6379V25.8003H43.8954V29.5091Z" fill="#464646"/>
<path d="M59.7675 31.4441H54.0873C53.6435 31.4441 53.1849 31.0043 53.1849 30.5499V24.9207C53.1849 24.4809 53.6287 24.0265 54.0873 24.0265H59.7675C60.2113 24.0265 60.6698 24.4663 60.6698 24.9207V30.5499C60.8177 30.9896 60.374 31.4441 59.7675 31.4441ZM55.1227 29.5091H58.8652V25.8003H55.1227V29.5091Z" fill="#464646"/>
<path d="M14.873 48.0531H9.19273C8.74897 48.0531 8.29041 47.6133 8.29041 47.1589V41.5297C8.29041 41.0899 8.73417 40.6355 9.19273 40.6355H14.873C15.3167 40.6355 15.7753 41.0753 15.7753 41.5297V47.1589C15.9232 47.5987 15.4794 48.0531 14.873 48.0531ZM10.2282 46.2647H13.9706V42.5559H10.2282V46.2647Z" fill="#464646"/>
<path d="M26.1004 48.0531H20.4201C19.9764 48.0531 19.5178 47.6133 19.5178 47.1589V41.5297C19.5178 41.0899 19.9616 40.6355 20.4201 40.6355H26.1004C26.5441 40.6355 27.0027 41.0753 27.0027 41.5297V47.1589C27.1506 47.5987 26.7069 48.0531 26.1004 48.0531ZM21.4556 46.2647H25.198V42.5559H21.4556V46.2647Z" fill="#464646"/>
<path d="M37.3128 48.0531H31.6326C31.1888 48.0531 30.7302 47.6133 30.7302 47.1589V41.5297C30.7302 41.0899 31.174 40.6355 31.6326 40.6355H37.3128C37.7565 40.6355 38.2151 41.0753 38.2151 41.5297V47.1589C38.363 47.5987 37.9193 48.0531 37.3128 48.0531ZM32.6828 46.2647H36.4252V42.5559H32.6828V46.2647Z" fill="#464646"/>
<path d="M48.5402 48.0531H42.86C42.4162 48.0531 41.9576 47.6133 41.9576 47.1589V41.5297C41.9576 41.0899 42.4014 40.6355 42.86 40.6355H48.5402C48.984 40.6355 49.4425 41.0753 49.4425 41.5297V47.1589C49.5904 47.5987 49.1467 48.0531 48.5402 48.0531ZM43.8954 46.2647H47.6379V42.5559H43.8954V46.2647Z" fill="#464646"/>
</svg>
