<svg width="61" height="81" viewBox="0 0 61 81" fill="none" xmlns="http://www.w3.org/2000/svg">
<path d="M60.1702 13.8457L51.6417 21.8302V15.7772C37.1963 9.72417 24.1247 9.99622 12.0188 15.0835V21.0004L3.47668 13.7096L32.0955 0.909912L60.1702 13.8457Z" fill="#D3E7FF"/>
<path d="M32.0954 3.11344L58.6603 15.2194L60.1701 13.8456L31.9594 1.0459L3.34058 13.8456L4.98643 15.2194L32.0954 3.11344Z" fill="#D3E7FF"/>
<path d="M51.5056 21.8301V27.611C38.298 23.476 25.0903 23.8976 11.8827 27.611V15.233C23.9886 10.1457 37.0602 9.8601 51.5056 15.9267V21.8437V21.8301Z" fill="#D3E7FF"/>
<path d="M13.5285 27.1895V16.5933C25.2263 11.6421 37.7403 11.2204 51.5056 16.5933V15.8996C37.0602 9.8466 23.9886 10.1186 11.8827 15.2059V27.5839C12.4268 27.4479 12.9845 27.3119 13.5285 27.1759V27.1895Z" fill="#D3E7FF"/>
<path d="M51.5056 22.6599C51.2336 22.6599 51.0976 22.5238 50.8119 22.3878C50.5399 21.9797 50.5399 21.5581 50.8119 21.15L58.3747 13.9952L31.8234 1.87561L4.71444 13.9816L11.8691 20.0346H12.0052C12.4132 20.1706 12.6989 20.7283 12.5492 21.1364V21.2724C12.4132 21.5445 12.2772 21.8165 12.0052 21.8165C11.7331 21.9525 11.4611 21.8165 11.1754 21.6805L2.64692 14.4033C2.37488 14.2673 2.37488 13.8456 2.37488 13.5735C2.37488 13.3015 2.64692 13.0295 2.91896 12.8798L31.5514 0.0937161C31.8234 -0.0423064 32.0955 -0.0423064 32.2451 0.0937161L60.4558 13.0295C60.7279 13.1655 60.8639 13.4375 60.9999 13.7232C60.9999 13.9952 60.9999 14.2673 60.7279 14.5529L52.1993 22.5374C52.0633 22.6735 51.7913 22.6735 51.5056 22.6735V22.6599Z" fill="#464646"/>
<path d="M12.0051 28.4273C11.8691 28.4273 11.5971 28.4273 11.461 28.2913C11.189 28.1552 11.189 27.8832 11.189 27.5975V15.2195C11.189 14.9474 11.461 14.5258 11.7331 14.3898C17.922 11.7781 24.3966 10.4043 30.7216 10.4043C37.6043 10.4043 44.759 11.9141 52.0497 14.9474C52.3217 15.0835 52.5938 15.3555 52.5938 15.7772V27.6111C52.5938 27.8832 52.4577 28.1552 52.1857 28.3049C51.9137 28.4409 51.6416 28.4409 51.492 28.4409C45.303 26.5094 38.9645 25.5572 32.5035 25.5572C26.0425 25.5572 19.2958 26.523 12.4132 28.4409H12.0051V28.4273ZM12.8348 15.7772V26.5094C19.4455 24.7275 25.9065 23.8977 32.2314 23.8977C38.5564 23.8977 44.6093 24.7275 50.6759 26.5094V16.4709C43.7932 13.7232 37.0602 12.1998 30.5856 12.1998C24.6687 12.1998 18.6157 13.4376 12.8348 15.7772Z" fill="#464646"/>
<path d="M60.1702 32.8343C59.7621 32.8343 59.3405 32.4263 59.3405 32.0046V14.7978C59.3405 14.3897 59.7485 13.968 60.1702 13.968C60.5919 13.968 60.9999 14.3761 60.9999 14.7978V32.0046C60.9999 32.4127 60.5919 32.8343 60.1702 32.8343Z" fill="#464646"/>
<path d="M60.1702 80.9999H1.69478C1.28672 80.9999 0.865051 80.5919 0.865051 80.1702C0.865051 79.7485 1.27311 79.3405 1.69478 79.3405H60.1702C60.5782 79.3405 60.9999 79.7485 60.9999 80.1702C60.9999 80.5919 60.5918 80.9999 60.1702 80.9999Z" fill="#464646"/>
<path d="M31.9593 67.2344L32.0953 77.5585C28.2459 77.5585 24.6686 73.709 22.601 67.7921C25.4847 67.52 28.518 67.384 31.6872 67.384C31.7779 67.2933 31.8686 67.248 31.9593 67.248V67.2344Z" fill="white"/>
<path d="M31.9593 67.2344L32.0953 77.5585C28.2459 77.5585 24.6686 73.709 22.601 67.7921C25.4847 67.52 28.518 67.384 31.6872 67.384C31.7779 67.2933 31.8686 67.248 31.9593 67.248V67.2344Z" fill="white"/>
<path d="M31.9593 68.4723C29.3477 68.4723 27.0081 68.6083 24.5326 68.8803C25.7704 72.4577 27.5658 75.3414 29.6197 77.0009H29.4837C30.8575 78.1026 32.3674 78.7964 33.8908 78.6467L33.7548 68.3226H33.4827C33.0747 68.4587 32.517 68.4587 31.9729 68.4587L31.9593 68.4723Z" fill="white"/>
<path d="M41.1815 67.7921C39.25 73.709 35.9583 77.5585 32.0953 77.5585L31.9593 67.2344C35.1286 67.2344 38.2843 67.3704 41.1815 67.7785V67.7921Z" fill="white"/>
<path d="M39.8077 67.656C38.0122 72.6072 35.2646 75.9126 32.0953 76.6063V77.572C35.9447 77.572 39.25 73.7226 41.1815 67.8056C40.7734 67.6696 40.2157 67.6696 39.8077 67.6696V67.656Z" fill="white"/>
<path d="M51.5055 69.4379C46.9624 75.2189 40.0798 79.0683 32.1089 79.2043H31.7009C23.5804 79.2043 16.4257 75.3549 11.8826 69.4379C15.0519 68.6082 18.6293 68.0641 22.6147 67.656C24.8182 73.709 28.2596 77.5584 32.1089 77.4224C35.9583 77.4224 39.2636 73.573 41.1951 67.656C45.0445 68.0641 48.4859 68.7578 51.5191 69.4379H51.5055Z" fill="#D3E7FF"/>
<path d="M41.1816 67.792C41.0455 68.2001 40.9095 68.6218 40.7735 68.8938C43.6571 69.3019 46.2823 69.7236 48.6219 70.4037C45.7383 74.1171 41.7392 77.1504 37.1961 78.7963C42.977 77.5585 48.0642 74.1171 51.5055 69.5739C48.4723 68.7442 45.0445 68.0641 41.1816 67.7784V67.792Z" fill="#D3E7FF"/>
<path d="M14.6303 70.4037C17.1058 69.71 20.0031 69.1659 22.8867 68.8939C22.7507 68.4858 22.6147 68.2002 22.4787 67.7921C18.4933 68.2002 14.9159 68.7579 11.7466 69.5876C15.1879 73.9947 20.0031 77.3001 25.5119 78.6739C21.3905 76.8784 17.5275 73.9947 14.6439 70.4173L14.6303 70.4037Z" fill="#D3E7FF"/>
<path d="M56.5927 53.8906C56.7287 59.6716 54.8108 65.1669 51.5055 69.438C48.4722 68.6083 44.8949 68.0642 41.1815 67.6561C42.4193 63.8067 43.249 59.1275 43.113 54.1763L56.5927 53.9042V53.8906Z" fill="white"/>
<path d="M56.5927 53.8906L42.977 54.1627V55.8085L54.8108 55.6725C54.9469 60.7598 53.437 65.4389 50.9615 69.438C51.0975 69.438 51.2335 69.574 51.3695 69.574C54.8108 65.1669 56.7423 59.8076 56.5927 53.8906Z" fill="white"/>
<path d="M43.113 54.1627C43.249 59.25 42.4193 63.9291 41.1815 67.7786C38.2979 67.5065 35.1286 67.3705 31.9593 67.3705L31.6873 54.4348L43.113 54.1627Z" fill="white"/>
<path d="M43.113 54.1627L31.6873 54.2987V55.6726L41.5896 55.5365C41.7256 59.9437 41.1815 64.0652 40.0797 67.5065C40.3518 67.5065 40.7735 67.5065 41.0455 67.6426C42.4193 63.9291 43.249 59.25 43.113 54.1627Z" fill="white"/>
<path d="M31.6873 54.2987L31.9593 67.2344H31.6873C28.518 67.2344 25.4983 67.3705 22.6011 67.6425C21.2272 63.9291 20.3975 59.3859 20.3975 54.4347L31.6873 54.2987Z" fill="white"/>
<path d="M21.7849 55.9582L31.8233 55.8222V54.4484L20.3975 54.5844C20.5335 59.5356 21.3633 64.0788 22.6011 67.7922C22.8731 67.7922 23.1451 67.7922 23.5668 67.6561C22.465 64.2148 21.7849 60.2293 21.7849 55.9582Z" fill="white"/>
<path d="M22.6011 67.6561C18.6157 68.0642 15.0383 68.6219 11.869 69.438C8.69976 65.3166 6.78186 60.2157 6.78186 54.7204L20.3976 54.4484C20.3976 59.3996 21.2273 63.9427 22.6011 67.6561Z" fill="white"/>
<path d="M8.56373 56.5022L20.3976 56.2302V54.4347L6.78186 54.7067C6.91788 60.2157 8.71336 65.3029 11.869 69.4244C12.0051 69.4244 12.1411 69.2884 12.2771 69.2884C9.93755 65.711 8.56373 61.3038 8.56373 56.4886V56.5022Z" fill="white"/>
<path d="M10.9033 40.6829C14.0726 41.5126 17.786 42.1927 21.7714 42.7504C20.8056 46.1918 20.2615 50.3133 20.3976 54.5844L6.78187 54.7204C6.64585 49.4971 8.15568 44.6819 10.9033 40.6829Z" fill="white"/>
<path d="M11.733 42.6007C14.4806 43.4305 17.786 43.9746 21.3633 44.3826C21.4993 43.6889 21.6353 43.1448 21.7714 42.6007C17.786 42.1927 14.0726 41.499 10.9033 40.5332C8.29169 44.5187 6.78186 49.4835 6.78186 54.5707H7.61159C7.88363 50.2996 9.39346 46.1781 11.733 42.6007Z" fill="white"/>
<path d="M56.5927 53.8907L42.977 54.1627C42.977 50.0413 42.2833 46.0422 41.3312 42.7369C45.4526 42.3288 49.3156 41.6351 52.4713 40.6693C55.0829 44.5187 56.5927 49.0619 56.5927 53.8771V53.8907Z" fill="white"/>
<path d="M51.6416 42.4648C53.8451 45.7701 55.2189 49.7556 55.627 54.0267H56.5927C56.4567 49.0754 55.0829 44.5323 52.4713 40.6829C49.302 41.6486 45.4526 42.3287 41.3312 42.7504C41.4672 43.3081 41.6032 43.8522 41.7392 44.3963C45.4526 43.8522 48.8939 43.2945 51.6416 42.4648Z" fill="white"/>
<path d="M43.1131 54.1627L31.6873 54.2987L31.5513 43.1585H31.6873C35.1286 43.1585 38.2979 43.0224 41.3176 42.6144C42.4193 46.0557 42.9634 50.0412 43.0994 54.1763L43.1131 54.1627Z" fill="white"/>
<path d="M40.3518 44.2603C41.1815 47.1439 41.8616 50.5853 41.9976 54.1627H43.0994C43.0994 50.0412 42.4057 46.0422 41.4536 42.7368C38.4203 43.0089 35.1286 43.2945 31.8233 43.2945H31.6873V44.8044C34.5709 44.6683 37.6042 44.5323 40.3518 44.2603Z" fill="white"/>
<path d="M31.5512 43.1585L31.6873 54.2988L20.2615 54.4348C20.2615 50.1637 20.6696 46.0422 21.6353 42.6008C24.8046 43.0089 28.0963 43.1449 31.5376 43.1449L31.5512 43.1585Z" fill="white"/>
<path d="M23.0227 44.3963C25.7704 44.6683 28.6676 44.8043 31.5513 44.954V43.1585C28.1099 43.1585 24.8046 43.0224 21.785 42.6144C20.8192 46.0557 20.2751 50.1772 20.4111 54.4483H21.6489C21.6489 50.8709 22.193 47.4296 23.0227 44.4099V44.3963Z" fill="white"/>
<path d="M31.4153 31.1885L31.5513 43.1585C28.11 43.1585 24.8047 43.0224 21.785 42.6144C23.5669 35.8677 27.1578 31.3381 31.4153 31.1885Z" fill="white"/>
<path d="M31.4153 32.5623V31.1885C27.2938 31.1885 23.7165 35.8677 21.785 42.6144C22.1931 42.6144 22.7508 42.7504 23.1588 42.7504C24.9407 37.2415 27.8379 33.256 31.4153 32.5623Z" fill="white"/>
<path d="M31.4153 31.1885C35.6863 31.1885 39.3997 35.7316 41.4536 42.6144C38.4203 42.8864 35.1286 43.1585 31.8233 43.1585H31.6873L31.4153 31.1885Z" fill="white"/>
<path d="M40.2158 42.7368C40.6239 42.7368 41.0455 42.6008 41.4536 42.6008C39.3861 35.718 35.6727 31.0389 31.4153 31.1749V32.2767C34.9926 32.8208 38.2979 36.8198 40.2158 42.7368Z" fill="white"/>
<path d="M31.2792 29.393C40.0798 29.257 47.9282 33.8001 52.4713 40.6829C49.302 41.6486 45.4526 42.3287 41.3312 42.7504C39.2637 35.8677 35.5503 31.1885 31.2928 31.3245V29.393H31.2792Z" fill="#D3E7FF"/>
<path d="M50.9478 41.0909C51.4919 40.9549 52.0496 40.8189 52.5937 40.6829C48.0506 33.8001 40.2158 29.257 31.4016 29.393V30.7668C39.386 30.9028 46.5407 35.0379 50.9342 41.0909H50.9478Z" fill="#D3E7FF"/>
<path d="M31.2792 29.3929V31.1884C27.1577 31.1884 23.5804 35.8676 21.6489 42.6143C17.6635 42.2063 13.9365 41.5125 10.7808 40.5468C15.3239 33.9361 22.7507 29.5426 31.2792 29.4065V29.3929Z" fill="#D3E7FF"/>
<path d="M31.4153 31.0524V29.4065C22.8868 29.5425 15.3104 33.9496 10.9169 40.6964C11.461 40.8324 12.0187 40.9684 12.5628 41.1044C16.8338 35.3235 23.5669 31.474 31.4153 31.066V31.0524Z" fill="#D3E7FF"/>
<path d="M31.9593 78.3746C27.8379 78.3746 24.1109 74.5252 21.7714 67.9145C20.3975 63.929 19.5678 59.3859 19.4318 54.4347C19.4318 50.1636 19.8399 46.0421 20.8056 42.3287C22.8731 34.7658 26.7225 30.3587 31.2656 30.2227H31.4016C35.9447 30.2227 39.9302 34.7658 42.1337 42.3287C43.2355 45.9061 43.7795 49.8915 43.9156 54.0266C44.0516 58.9778 43.3715 63.793 41.9841 67.7921C39.7805 74.5388 36.2032 78.2522 31.9457 78.3882L31.9593 78.3746ZM31.4152 32.0182C27.7019 32.0182 24.3966 36.2893 22.6147 42.8864C21.6489 46.3277 21.1049 50.4492 21.2409 54.4483C21.3769 59.1274 22.0706 63.5346 23.4444 67.248C25.5119 73.0289 28.8172 76.4703 32.1089 76.4703H32.245C35.5503 76.4703 38.5699 73.0289 40.5014 67.248C41.7392 63.3986 42.4329 58.7194 42.4329 54.0402C42.4329 50.0547 41.7392 46.1917 40.7871 42.7503C38.5835 36.2893 35.1422 32.0182 31.4288 32.0182H31.4152Z" fill="#464646"/>
<path d="M6.78178 55.5365C6.37372 55.5365 5.95206 55.1284 5.95206 54.7067C5.95206 54.285 6.36012 53.877 6.78178 53.877L56.5927 53.0472C57.0007 53.0472 57.4224 53.4553 57.4224 53.877C57.4224 54.2986 57.0143 54.7067 56.5927 54.7067L6.78178 55.5365Z" fill="#464646"/>
<path d="M11.869 70.4038C11.597 70.4038 11.3249 70.2678 11.1753 70.1318C7.73398 65.7246 5.95211 60.5014 5.80249 54.8564C5.66647 49.6332 7.1763 44.6684 10.0735 40.2748C10.3456 39.8668 10.9033 39.7171 11.3113 40.0028C11.7194 40.2748 11.8554 40.8325 11.5834 41.2406C8.97177 45.2261 7.59796 50.0412 7.59796 54.8564C7.73398 60.0797 9.37984 64.8949 12.5491 69.03C12.8212 69.4381 12.8212 69.9958 12.4131 70.2678C12.2771 70.2678 12.1411 70.4038 11.869 70.4038Z" fill="#464646"/>
<path d="M51.5055 70.4038C51.3695 70.4038 51.0974 70.4038 50.9614 70.2678C50.5534 69.9958 50.5534 69.4381 50.8254 69.03C54.1307 64.6229 55.9126 59.5356 55.7766 54.0267C55.6405 49.4836 54.4027 44.9404 51.7911 41.227C51.5191 40.8189 51.6551 40.2612 52.0632 39.9892C52.4713 39.7171 53.0289 39.8532 53.301 40.2612C56.0486 44.3827 57.4224 49.0619 57.572 54.0267C57.7081 59.9437 55.7902 65.4526 52.1992 70.1182C52.0632 70.2542 51.7911 70.3902 51.5055 70.3902V70.4038Z" fill="#464646"/>
<path d="M31.6873 43.9882H31.5512C28.1099 43.9882 24.8046 43.8521 21.6489 43.4305C17.6635 43.0224 13.9365 42.3287 10.6448 41.3629C10.3728 41.2269 10.2368 41.0909 10.1007 40.8052C9.96472 40.5332 10.1007 40.2611 10.2368 39.9755C14.9159 32.8207 22.9003 28.5496 31.4288 28.4136C40.2294 28.2776 48.4859 32.6847 53.4506 39.9755C53.5866 40.2475 53.5866 40.5196 53.5866 40.8052C53.4506 41.0773 53.3146 41.2133 53.0426 41.3629C49.7372 42.3287 45.8879 43.0088 41.7664 43.4305C38.3251 43.8385 35.1558 43.9882 31.7281 43.9882H31.6873ZM12.2907 40.1251C15.1743 40.8188 18.3436 41.3629 21.7849 41.771C24.9542 42.043 28.1099 42.3287 31.4152 42.3287H31.5512C34.8566 42.3287 38.0122 42.1927 41.1815 41.771C44.7589 41.3629 48.0642 40.8052 50.9478 40.1251C46.6768 33.9361 39.3861 30.2227 31.6873 30.2227H31.2792C23.7164 30.3587 16.6978 34.0721 12.2907 40.1251Z" fill="#464646"/>
<path d="M31.6873 80.1701C23.5668 80.1701 16.1401 76.4567 11.1889 69.9821C11.0529 69.71 10.9169 69.4244 11.0529 69.1523C11.1889 68.8803 11.3249 68.7442 11.597 68.6082C14.7663 67.7785 18.4796 67.0984 22.465 66.8127C25.4983 66.5407 28.518 66.4047 31.6873 66.4047H31.9593C35.1286 66.4047 38.2843 66.5407 41.3176 66.8127C45.1669 67.2208 48.6083 67.7785 51.7776 68.6082C52.0496 68.7442 52.3216 68.8803 52.3216 69.1523C52.4577 69.4244 52.3216 69.6964 52.1856 69.9821C47.3705 76.3071 40.0798 80.0205 32.0953 80.1701H31.6873ZM13.3925 69.9821C18.0716 75.3549 24.6686 78.3746 31.6873 78.3746H32.0953C39.114 78.2386 45.439 75.2053 49.9821 69.9821C47.2345 69.2883 44.2012 68.8803 41.0319 68.6082C38.1483 68.3362 34.979 68.2002 31.8097 68.2002H31.6737C28.6404 68.2002 25.4847 68.3362 22.5875 68.6082C19.2822 68.8803 16.2625 69.3019 13.3652 69.9821H13.3925Z" fill="#464646"/>
<path d="M32.0953 78.3746C31.6873 78.3746 31.2656 77.9665 31.2656 77.5449L30.4359 29.3793C30.4359 28.9712 30.8439 28.5496 31.2656 28.5496C31.6873 28.5496 32.0953 28.9576 32.0953 29.3793L32.9251 77.5449C32.9251 77.9529 32.653 78.3746 32.0953 78.3746Z" fill="#464646"/>
</svg>
