<svg width="488" height="56" viewBox="0 0 488 56" fill="none" xmlns="http://www.w3.org/2000/svg">
<path d="M20.384 23.24C20.0427 23.4747 19.5307 23.7627 18.848 24.104C18.1867 24.424 17.3973 24.7013 16.48 24.936C15.584 25.1707 14.592 25.2773 13.504 25.256C11.6907 25.2347 10.0587 24.9147 8.608 24.296C7.17867 23.6773 5.96267 22.8347 4.96 21.768C3.95733 20.68 3.17867 19.4427 2.624 18.056C2.09067 16.648 1.824 15.1547 1.824 13.576C1.824 11.8267 2.10133 10.2267 2.656 8.776C3.21067 7.304 4 6.024 5.024 4.936C6.06933 3.848 7.28533 3.00533 8.672 2.408C10.08 1.81067 11.616 1.512 13.28 1.512C14.7093 1.512 16 1.704 17.152 2.088C18.304 2.472 19.2747 2.92 20.064 3.432L18.72 6.632C18.1013 6.20533 17.3333 5.8 16.416 5.416C15.52 5.01067 14.5173 4.808 13.408 4.808C12.32 4.808 11.2853 5.032 10.304 5.48C9.344 5.90667 8.49067 6.51467 7.744 7.304C7.01867 8.072 6.44267 8.97867 6.016 10.024C5.58933 11.048 5.376 12.168 5.376 13.384C5.376 14.6213 5.568 15.7627 5.952 16.808C6.336 17.8533 6.88 18.76 7.584 19.528C8.30933 20.296 9.17333 20.8933 10.176 21.32C11.1787 21.7467 12.3093 21.96 13.568 21.96C14.7627 21.96 15.808 21.7787 16.704 21.416C17.6213 21.0533 18.368 20.6373 18.944 20.168L20.384 23.24ZM23.146 25L33.354 0.839998H33.546L43.754 25H39.85L32.426 6.184L34.89 4.552L26.506 25H23.146ZM29.354 16.296H37.61L38.794 19.24H28.33L29.354 16.296ZM54.3203 1.768C56.0483 1.768 57.5203 2.06667 58.7363 2.664C59.9736 3.24 60.9123 4.072 61.5522 5.16C62.2136 6.248 62.5443 7.57067 62.5443 9.128C62.5443 10.0453 62.4056 10.952 62.1283 11.848C61.8509 12.744 61.4029 13.5653 60.7843 14.312C60.1869 15.0373 59.3869 15.624 58.3843 16.072C57.3816 16.4987 56.1656 16.712 54.7363 16.712H51.3443V25H47.9203V1.768H54.3203ZM54.7363 13.416C55.5896 13.416 56.3043 13.2773 56.8803 13C57.4563 12.7013 57.9043 12.328 58.2243 11.88C58.5656 11.432 58.8003 10.9733 58.9283 10.504C59.0776 10.0133 59.1523 9.576 59.1523 9.192C59.1523 8.76533 59.0776 8.31733 58.9283 7.848C58.8003 7.35733 58.5763 6.90933 58.2563 6.504C57.9363 6.07733 57.4989 5.736 56.9443 5.48C56.3896 5.20267 55.6963 5.064 54.8643 5.064H51.3443V13.416H54.7363ZM65.5055 1.768H80.9935V5.064H74.8815V25H71.4575V5.064H65.5055V1.768ZM85.8265 1.768H89.2505V25H85.8265V1.768ZM97.812 1.768L105.3 20.456L103.348 20.104L110.356 1.768H114.388L104.052 26.088L93.748 1.768H97.812ZM113.521 25L123.729 0.839998H123.921L134.129 25H130.225L122.801 6.184L125.265 4.552L116.881 25H113.521ZM119.729 16.296H127.985L129.169 19.24H118.705L119.729 16.296ZM134.787 1.768H150.275V5.064H144.163V25H140.739V5.064H134.787V1.768ZM155.108 1.768H170.372V5.064H158.532V11.688H169.06V14.984H158.532V21.704H170.82V25H155.108V1.768ZM186.264 1.768H189.688V25H186.264V1.768ZM198.41 11.592L198.698 14.664L198.57 14.248C199.018 13.288 199.711 12.52 200.65 11.944C201.588 11.3467 202.698 11.048 203.978 11.048C205.236 11.048 206.271 11.4213 207.082 12.168C207.914 12.9147 208.34 13.8853 208.362 15.08V25H205.066V16.232C205.044 15.5493 204.842 14.9947 204.458 14.568C204.074 14.12 203.476 13.8853 202.666 13.864C201.94 13.864 201.279 14.088 200.682 14.536C200.084 14.9627 199.615 15.5493 199.274 16.296C198.932 17.0427 198.762 17.9067 198.762 18.888V25H195.466V11.592H198.41ZM218.503 25.352L210.919 11.592H214.823L219.751 21.96L217.735 21.864L222.215 11.592H225.895L218.631 25.352H218.503ZM234.926 25.32C233.368 25.32 232.035 25.0213 230.926 24.424C229.816 23.8053 228.963 22.9627 228.366 21.896C227.768 20.808 227.47 19.5707 227.47 18.184C227.47 16.8613 227.8 15.6667 228.462 14.6C229.144 13.512 230.051 12.648 231.182 12.008C232.334 11.368 233.603 11.048 234.99 11.048C236.782 11.048 238.264 11.5707 239.438 12.616C240.632 13.6613 241.432 15.1227 241.838 17L230.926 20.776L230.158 18.856L238.894 15.72L238.222 16.136C237.966 15.4747 237.56 14.8987 237.006 14.408C236.451 13.896 235.694 13.64 234.734 13.64C233.966 13.64 233.272 13.832 232.654 14.216C232.056 14.5787 231.576 15.0907 231.214 15.752C230.872 16.392 230.702 17.1493 230.702 18.024C230.702 18.92 230.883 19.7093 231.246 20.392C231.63 21.0533 232.142 21.576 232.782 21.96C233.443 22.344 234.179 22.536 234.99 22.536C235.566 22.536 236.11 22.4293 236.622 22.216C237.155 22.0027 237.656 21.736 238.126 21.416L239.63 23.848C238.926 24.296 238.158 24.6587 237.326 24.936C236.515 25.192 235.715 25.32 234.926 25.32ZM249.401 25.288C248.419 25.288 247.47 25.1173 246.553 24.776C245.635 24.4133 244.878 23.8907 244.281 23.208L245.689 21.352C246.265 21.8853 246.841 22.2907 247.417 22.568C248.014 22.824 248.579 22.952 249.113 22.952C249.539 22.952 249.923 22.9093 250.265 22.824C250.606 22.7173 250.883 22.5467 251.097 22.312C251.31 22.0773 251.417 21.768 251.417 21.384C251.417 20.936 251.267 20.584 250.969 20.328C250.67 20.072 250.286 19.8587 249.817 19.688C249.347 19.5173 248.846 19.3573 248.313 19.208C247.182 18.8453 246.329 18.3333 245.753 17.672C245.177 16.9893 244.889 16.1893 244.889 15.272C244.889 14.568 245.059 13.9067 245.401 13.288C245.763 12.648 246.307 12.1253 247.033 11.72C247.758 11.3147 248.654 11.112 249.721 11.112C250.702 11.112 251.566 11.2293 252.313 11.464C253.059 11.6773 253.753 12.0507 254.393 12.584L253.113 14.568C252.729 14.184 252.27 13.896 251.737 13.704C251.225 13.4907 250.755 13.3733 250.329 13.352C249.945 13.352 249.593 13.416 249.273 13.544C248.953 13.6507 248.697 13.8213 248.505 14.056C248.313 14.2693 248.217 14.5253 248.217 14.824C248.195 15.2507 248.334 15.6027 248.633 15.88C248.953 16.136 249.358 16.3493 249.849 16.52C250.339 16.6693 250.819 16.8293 251.289 17C251.95 17.192 252.537 17.4587 253.049 17.8C253.561 18.12 253.966 18.5147 254.265 18.984C254.563 19.4533 254.713 20.0507 254.713 20.776C254.713 21.5653 254.521 22.312 254.137 23.016C253.753 23.6987 253.166 24.2533 252.377 24.68C251.587 25.0853 250.595 25.288 249.401 25.288ZM260.058 5.704H263.354V11.624H266.938V14.216H263.354V25H260.058V14.216H257.69V11.624H260.058V5.704ZM270.497 11.592H273.793V25H270.497V11.592ZM270.305 6.792C270.305 6.28 270.507 5.85333 270.913 5.512C271.318 5.17067 271.755 5 272.225 5C272.715 5 273.153 5.17067 273.537 5.512C273.921 5.85333 274.113 6.28 274.113 6.792C274.113 7.304 273.921 7.73067 273.537 8.072C273.153 8.392 272.715 8.552 272.225 8.552C271.755 8.552 271.318 8.392 270.913 8.072C270.507 7.73067 270.305 7.304 270.305 6.792ZM285.369 31.656C284.324 31.656 283.417 31.5387 282.649 31.304C281.881 31.0693 281.188 30.7387 280.569 30.312C279.972 29.9067 279.396 29.4693 278.841 29L280.793 26.728C281.455 27.3467 282.137 27.8373 282.841 28.2C283.545 28.584 284.367 28.776 285.305 28.776C286.244 28.776 287.044 28.616 287.705 28.296C288.388 27.9973 288.911 27.5707 289.273 27.016C289.636 26.4613 289.817 25.8 289.817 25.032L289.849 21.544L290.073 22.184C289.711 23.0587 289.039 23.8053 288.057 24.424C287.076 25.0213 285.871 25.32 284.441 25.32C283.225 25.32 282.095 25.0107 281.049 24.392C280.025 23.7733 279.204 22.9307 278.585 21.864C277.967 20.7973 277.657 19.592 277.657 18.248C277.657 16.84 277.977 15.6027 278.617 14.536C279.279 13.448 280.143 12.5947 281.209 11.976C282.276 11.336 283.417 11.016 284.633 11.016C285.828 11.016 286.895 11.2507 287.833 11.72C288.772 12.168 289.476 12.7333 289.945 13.416L289.753 13.96L290.105 11.592H293.145V25.064C293.145 26.3013 292.815 27.4107 292.153 28.392C291.513 29.3947 290.617 30.184 289.465 30.76C288.313 31.3573 286.948 31.656 285.369 31.656ZM280.985 18.152C280.985 18.984 281.177 19.7413 281.561 20.424C281.945 21.1067 282.468 21.6507 283.129 22.056C283.812 22.44 284.569 22.632 285.401 22.632C286.148 22.632 286.82 22.504 287.417 22.248C288.015 21.9707 288.516 21.608 288.921 21.16C289.348 20.6907 289.657 20.1467 289.849 19.528V16.744C289.657 16.1253 289.348 15.6027 288.921 15.176C288.495 14.728 287.983 14.376 287.385 14.12C286.788 13.864 286.127 13.736 285.401 13.736C284.569 13.736 283.812 13.928 283.129 14.312C282.468 14.6747 281.945 15.1867 281.561 15.848C281.177 16.5093 280.985 17.2773 280.985 18.152ZM303.784 25.32C302.526 25.32 301.384 25.064 300.36 24.552C299.336 24.0187 298.526 23.2293 297.928 22.184C297.331 21.1387 297.032 19.848 297.032 18.312C297.032 16.7973 297.342 15.496 297.96 14.408C298.6 13.32 299.432 12.488 300.456 11.912C301.502 11.3147 302.632 11.016 303.848 11.016C305.128 11.016 306.174 11.2933 306.984 11.848C307.816 12.3813 308.467 13.0107 308.936 13.736L308.712 14.248L309.032 11.592H312.072V25H308.776V21.64L309.128 22.44C309.043 22.6107 308.862 22.856 308.584 23.176C308.307 23.4747 307.934 23.7947 307.464 24.136C307.016 24.4773 306.483 24.7653 305.864 25C305.267 25.2133 304.574 25.32 303.784 25.32ZM304.68 22.632C305.384 22.632 306.014 22.504 306.568 22.248C307.123 21.992 307.592 21.6293 307.976 21.16C308.36 20.6907 308.627 20.136 308.776 19.496V16.712C308.606 16.1147 308.318 15.6027 307.912 15.176C307.507 14.728 307.016 14.376 306.44 14.12C305.886 13.864 305.267 13.736 304.584 13.736C303.816 13.736 303.112 13.928 302.472 14.312C301.832 14.6747 301.32 15.1867 300.936 15.848C300.552 16.5093 300.36 17.2773 300.36 18.152C300.36 18.984 300.552 19.7413 300.936 20.424C301.342 21.1067 301.875 21.6507 302.536 22.056C303.198 22.44 303.912 22.632 304.68 22.632ZM318.402 5.704H321.698V11.624H325.282V14.216H321.698V25H318.402V14.216H316.034V11.624H318.402V5.704ZM327.689 18.152C327.689 16.808 328.009 15.6027 328.649 14.536C329.289 13.448 330.174 12.5947 331.305 11.976C332.435 11.3573 333.726 11.048 335.177 11.048C336.649 11.048 337.939 11.3573 339.049 11.976C340.158 12.5947 341.011 13.448 341.609 14.536C342.227 15.6027 342.537 16.808 342.537 18.152C342.537 19.496 342.227 20.712 341.609 21.8C341.011 22.888 340.158 23.752 339.049 24.392C337.939 25.0107 336.638 25.32 335.145 25.32C333.715 25.32 332.435 25.032 331.305 24.456C330.195 23.88 329.31 23.0587 328.649 21.992C328.009 20.904 327.689 19.624 327.689 18.152ZM331.016 18.184C331.016 19.016 331.198 19.7733 331.561 20.456C331.923 21.1173 332.414 21.6507 333.033 22.056C333.651 22.44 334.345 22.632 335.113 22.632C335.902 22.632 336.606 22.44 337.225 22.056C337.843 21.6507 338.323 21.1173 338.665 20.456C339.027 19.7733 339.209 19.016 339.209 18.184C339.209 17.352 339.027 16.6053 338.665 15.944C338.323 15.2827 337.843 14.7493 337.225 14.344C336.606 13.9387 335.902 13.736 335.113 13.736C334.323 13.736 333.619 13.9387 333.001 14.344C332.382 14.7493 331.891 15.2933 331.529 15.976C331.187 16.6373 331.016 17.3733 331.016 18.184ZM349.378 11.592L349.698 15.432L349.538 14.92C349.901 14.1093 350.413 13.416 351.074 12.84C351.736 12.264 352.418 11.8267 353.122 11.528C353.848 11.208 354.456 11.048 354.946 11.048L354.786 14.312C353.762 14.248 352.866 14.44 352.098 14.888C351.352 15.336 350.765 15.9333 350.338 16.68C349.912 17.4267 349.698 18.2267 349.698 19.08V25H346.434V11.592H349.378ZM369.608 25V0.999998H369.64L381.992 18.504L380.52 18.184L392.808 0.999998H392.872V25H389.48V8.712L389.704 10.472L381.128 22.6H381.064L372.328 10.472L372.904 8.872V25H369.608ZM404.957 25.32C403.4 25.32 402.066 25.0213 400.957 24.424C399.848 23.8053 398.994 22.9627 398.397 21.896C397.8 20.808 397.501 19.5707 397.501 18.184C397.501 16.8613 397.832 15.6667 398.493 14.6C399.176 13.512 400.082 12.648 401.213 12.008C402.365 11.368 403.634 11.048 405.021 11.048C406.813 11.048 408.296 11.5707 409.469 12.616C410.664 13.6613 411.464 15.1227 411.869 17L400.957 20.776L400.189 18.856L408.925 15.72L408.253 16.136C407.997 15.4747 407.592 14.8987 407.037 14.408C406.482 13.896 405.725 13.64 404.765 13.64C403.997 13.64 403.304 13.832 402.685 14.216C402.088 14.5787 401.608 15.0907 401.245 15.752C400.904 16.392 400.733 17.1493 400.733 18.024C400.733 18.92 400.914 19.7093 401.277 20.392C401.661 21.0533 402.173 21.576 402.813 21.96C403.474 22.344 404.21 22.536 405.021 22.536C405.597 22.536 406.141 22.4293 406.653 22.216C407.186 22.0027 407.688 21.736 408.157 21.416L409.661 23.848C408.957 24.296 408.189 24.6587 407.357 24.936C406.546 25.192 405.746 25.32 404.957 25.32ZM421.832 25.32C420.275 25.32 418.941 25.0213 417.832 24.424C416.723 23.8053 415.869 22.9627 415.272 21.896C414.675 20.808 414.376 19.5707 414.376 18.184C414.376 16.8613 414.707 15.6667 415.368 14.6C416.051 13.512 416.957 12.648 418.088 12.008C419.24 11.368 420.509 11.048 421.896 11.048C423.688 11.048 425.171 11.5707 426.344 12.616C427.539 13.6613 428.339 15.1227 428.744 17L417.832 20.776L417.064 18.856L425.8 15.72L425.128 16.136C424.872 15.4747 424.467 14.8987 423.912 14.408C423.357 13.896 422.6 13.64 421.64 13.64C420.872 13.64 420.179 13.832 419.56 14.216C418.963 14.5787 418.483 15.0907 418.12 15.752C417.779 16.392 417.608 17.1493 417.608 18.024C417.608 18.92 417.789 19.7093 418.152 20.392C418.536 21.0533 419.048 21.576 419.688 21.96C420.349 22.344 421.085 22.536 421.896 22.536C422.472 22.536 423.016 22.4293 423.528 22.216C424.061 22.0027 424.563 21.736 425.032 21.416L426.536 23.848C425.832 24.296 425.064 24.6587 424.232 24.936C423.421 25.192 422.621 25.32 421.832 25.32ZM433.683 5.704H436.979V11.624H440.563V14.216H436.979V25H433.683V14.216H431.315V11.624H433.683V5.704ZM444.122 11.592H447.418V25H444.122V11.592ZM443.93 6.792C443.93 6.28 444.132 5.85333 444.538 5.512C444.943 5.17067 445.38 5 445.85 5C446.34 5 446.778 5.17067 447.162 5.512C447.546 5.85333 447.738 6.28 447.738 6.792C447.738 7.304 447.546 7.73067 447.162 8.072C446.778 8.392 446.34 8.552 445.85 8.552C445.38 8.552 444.943 8.392 444.538 8.072C444.132 7.73067 443.93 7.304 443.93 6.792ZM455.378 11.592L455.666 14.664L455.538 14.248C455.986 13.288 456.68 12.52 457.618 11.944C458.557 11.3467 459.666 11.048 460.946 11.048C462.205 11.048 463.24 11.4213 464.05 12.168C464.882 12.9147 465.309 13.8853 465.33 15.08V25H462.034V16.232C462.013 15.5493 461.81 14.9947 461.426 14.568C461.042 14.12 460.445 13.8853 459.634 13.864C458.909 13.864 458.248 14.088 457.65 14.536C457.053 14.9627 456.584 15.5493 456.242 16.296C455.901 17.0427 455.73 17.9067 455.73 18.888V25H452.434V11.592H455.378ZM476.932 31.656C475.886 31.656 474.98 31.5387 474.212 31.304C473.444 31.0693 472.75 30.7387 472.132 30.312C471.534 29.9067 470.958 29.4693 470.404 29L472.356 26.728C473.017 27.3467 473.7 27.8373 474.404 28.2C475.108 28.584 475.929 28.776 476.868 28.776C477.806 28.776 478.606 28.616 479.268 28.296C479.95 27.9973 480.473 27.5707 480.836 27.016C481.198 26.4613 481.38 25.8 481.38 25.032L481.412 21.544L481.636 22.184C481.273 23.0587 480.601 23.8053 479.62 24.424C478.638 25.0213 477.433 25.32 476.004 25.32C474.788 25.32 473.657 25.0107 472.612 24.392C471.588 23.7733 470.766 22.9307 470.148 21.864C469.529 20.7973 469.22 19.592 469.22 18.248C469.22 16.84 469.54 15.6027 470.18 14.536C470.841 13.448 471.705 12.5947 472.772 11.976C473.838 11.336 474.98 11.016 476.196 11.016C477.39 11.016 478.457 11.2507 479.396 11.72C480.334 12.168 481.038 12.7333 481.508 13.416L481.316 13.96L481.668 11.592H484.708V25.064C484.708 26.3013 484.377 27.4107 483.716 28.392C483.076 29.3947 482.18 30.184 481.028 30.76C479.876 31.3573 478.51 31.656 476.932 31.656ZM472.548 18.152C472.548 18.984 472.74 19.7413 473.124 20.424C473.508 21.1067 474.03 21.6507 474.692 22.056C475.374 22.44 476.132 22.632 476.964 22.632C477.71 22.632 478.382 22.504 478.98 22.248C479.577 21.9707 480.078 21.608 480.484 21.16C480.91 20.6907 481.22 20.1467 481.412 19.528V16.744C481.22 16.1253 480.91 15.6027 480.484 15.176C480.057 14.728 479.545 14.376 478.948 14.12C478.35 13.864 477.689 13.736 476.964 13.736C476.132 13.736 475.374 13.928 474.692 14.312C474.03 14.6747 473.508 15.1867 473.124 15.848C472.74 16.5093 472.548 17.2773 472.548 18.152Z" fill="white"/>
<path d="M1.06 51C1.91333 50.1733 2.72667 49.36 3.5 48.56C4.27333 47.76 4.96667 46.9867 5.58 46.24C6.20667 45.4933 6.7 44.7733 7.06 44.08C7.42 43.3733 7.6 42.6933 7.6 42.04C7.6 41.6 7.52667 41.2267 7.38 40.92C7.23333 40.6 7.04 40.34 6.8 40.14C6.57333 39.94 6.31333 39.7933 6.02 39.7C5.72667 39.5933 5.42667 39.54 5.12 39.54C4.68 39.54 4.30667 39.6133 4 39.76C3.69333 39.8933 3.44 40.0733 3.24 40.3C3.05333 40.5267 2.91333 40.7667 2.82 41.02C2.74 41.2733 2.7 41.5267 2.7 41.78C2.7 42.22 2.76667 42.62 2.9 42.98C3.03333 43.3267 3.22667 43.6333 3.48 43.9L2.28 44.96C1.97333 44.76 1.70667 44.48 1.48 44.12C1.26667 43.76 1.1 43.3733 0.98 42.96C0.873333 42.5333 0.82 42.1533 0.82 41.82C0.82 41.1 0.993333 40.4267 1.34 39.8C1.7 39.16 2.22 38.6467 2.9 38.26C3.59333 37.8733 4.43333 37.68 5.42 37.68C6.26 37.68 6.99333 37.8733 7.62 38.26C8.24667 38.6467 8.73333 39.16 9.08 39.8C9.42667 40.4267 9.6 41.12 9.6 41.88C9.6 42.5467 9.46667 43.2 9.2 43.84C8.93333 44.48 8.57333 45.1133 8.12 45.74C7.68 46.3667 7.18667 46.9867 6.64 47.6C6.10667 48.2 5.57333 48.8067 5.04 49.42L4.2 49.14H10.04V51H1.06ZM15.7984 51.16C15.0918 51.16 14.4118 51.0333 13.7584 50.78C13.1184 50.5267 12.5984 50.2 12.1984 49.8L13.2384 48.3C13.5051 48.6067 13.8584 48.8533 14.2984 49.04C14.7518 49.2267 15.1984 49.32 15.6384 49.32C16.1318 49.32 16.5651 49.2133 16.9384 49C17.3251 48.7733 17.6251 48.4733 17.8384 48.1C18.0518 47.7133 18.1584 47.2733 18.1584 46.78C18.1584 46.2467 18.0584 45.7733 17.8584 45.36C17.6718 44.9467 17.3851 44.6267 16.9984 44.4C16.6251 44.16 16.1518 44.04 15.5784 44.04C15.1118 44.04 14.6784 44.1067 14.2784 44.24C13.8784 44.36 13.4651 44.5467 13.0384 44.8H13.0184V37.84H19.3184V39.7H14.6984V43.06L14.4384 42.66C14.6651 42.58 14.9184 42.52 15.1984 42.48C15.4918 42.4267 15.7718 42.4 16.0384 42.4C16.9318 42.4 17.6784 42.6 18.2784 43C18.8918 43.3867 19.3518 43.9067 19.6584 44.56C19.9784 45.2133 20.1384 45.9333 20.1384 46.72C20.1384 47.5467 19.9518 48.3 19.5784 48.98C19.2051 49.6467 18.6918 50.18 18.0384 50.58C17.3851 50.9667 16.6384 51.16 15.7984 51.16ZM22.4272 45.88H26.1672V47.52H22.4272V45.88ZM28.5014 51C29.3547 50.1733 30.1681 49.36 30.9414 48.56C31.7147 47.76 32.4081 46.9867 33.0214 46.24C33.6481 45.4933 34.1414 44.7733 34.5014 44.08C34.8614 43.3733 35.0414 42.6933 35.0414 42.04C35.0414 41.6 34.9681 41.2267 34.8214 40.92C34.6747 40.6 34.4814 40.34 34.2414 40.14C34.0147 39.94 33.7547 39.7933 33.4614 39.7C33.1681 39.5933 32.8681 39.54 32.5614 39.54C32.1214 39.54 31.7481 39.6133 31.4414 39.76C31.1347 39.8933 30.8814 40.0733 30.6814 40.3C30.4947 40.5267 30.3547 40.7667 30.2614 41.02C30.1814 41.2733 30.1414 41.5267 30.1414 41.78C30.1414 42.22 30.2081 42.62 30.3414 42.98C30.4747 43.3267 30.6681 43.6333 30.9214 43.9L29.7214 44.96C29.4147 44.76 29.1481 44.48 28.9214 44.12C28.7081 43.76 28.5414 43.3733 28.4214 42.96C28.3147 42.5333 28.2614 42.1533 28.2614 41.82C28.2614 41.1 28.4347 40.4267 28.7814 39.8C29.1414 39.16 29.6614 38.6467 30.3414 38.26C31.0347 37.8733 31.8747 37.68 32.8614 37.68C33.7014 37.68 34.4347 37.8733 35.0614 38.26C35.6881 38.6467 36.1747 39.16 36.5214 39.8C36.8681 40.4267 37.0414 41.12 37.0414 41.88C37.0414 42.5467 36.9081 43.2 36.6414 43.84C36.3747 44.48 36.0147 45.1133 35.5614 45.74C35.1214 46.3667 34.6281 46.9867 34.0814 47.6C33.5481 48.2 33.0147 48.8067 32.4814 49.42L31.6414 49.14H37.4814V51H28.5014ZM43.8198 51.16C42.9398 51.16 42.1398 50.9533 41.4198 50.54C40.7132 50.1133 40.1465 49.5133 39.7198 48.74C39.3065 47.9533 39.0998 47.0267 39.0998 45.96C39.0998 45.0933 39.2665 44.2733 39.5998 43.5C39.9465 42.7133 40.4065 41.98 40.9798 41.3C41.5532 40.6067 42.1998 39.9667 42.9198 39.38C43.6532 38.78 44.3998 38.2333 45.1598 37.74L46.4398 39.14C45.3598 39.6733 44.4532 40.28 43.7198 40.96C42.9865 41.6267 42.4198 42.3067 42.0198 43C41.6198 43.6933 41.3798 44.3467 41.2998 44.96L40.8198 44.9C41.1798 44.1533 41.6532 43.58 42.2398 43.18C42.8265 42.78 43.5665 42.58 44.4598 42.58C45.1398 42.58 45.7798 42.76 46.3798 43.12C46.9798 43.48 47.4665 43.9733 47.8398 44.6C48.2265 45.2267 48.4198 45.9467 48.4198 46.76C48.4198 47.6533 48.1998 48.4333 47.7598 49.1C47.3332 49.7533 46.7665 50.26 46.0598 50.62C45.3665 50.98 44.6198 51.16 43.8198 51.16ZM43.7398 49.42C44.2332 49.42 44.6798 49.3133 45.0798 49.1C45.4932 48.8733 45.8198 48.56 46.0598 48.16C46.2998 47.76 46.4198 47.3 46.4198 46.78C46.4198 46.26 46.2998 45.8067 46.0598 45.42C45.8198 45.0333 45.4932 44.7333 45.0798 44.52C44.6798 44.3067 44.2332 44.2 43.7398 44.2C43.2465 44.2 42.7998 44.3067 42.3998 44.52C41.9998 44.72 41.6798 45 41.4398 45.36C41.1998 45.7067 41.0798 46.0933 41.0798 46.52V46.86C41.0798 47.3133 41.1932 47.74 41.4198 48.14C41.6598 48.5267 41.9798 48.84 42.3798 49.08C42.7932 49.3067 43.2465 49.42 43.7398 49.42ZM51.6583 39.08H53.5183V42.76H55.7983V44.22H53.5183V51H51.6583V44.22H50.1383V42.76H51.6583V39.08ZM58.0458 51V35.52H59.8658V44.64L59.8258 44.3C60.1058 43.7533 60.5324 43.3 61.1058 42.94C61.6924 42.58 62.3791 42.4 63.1658 42.4C63.9524 42.4 64.5924 42.6333 65.0858 43.1C65.5924 43.5533 65.8524 44.1467 65.8658 44.88V51H63.9858V45.54C63.9724 45.0867 63.8391 44.72 63.5858 44.44C63.3458 44.1467 62.9658 44 62.4458 44C61.9658 44 61.5324 44.14 61.1458 44.42C60.7591 44.6867 60.4524 45.0533 60.2258 45.52C60.0124 45.9867 59.9058 46.52 59.9058 47.12V51H58.0458ZM70.7805 49.26C70.4871 49.9533 70.1938 50.64 69.9005 51.32C69.6205 52.0133 69.3338 52.7133 69.0405 53.42H67.5405C67.8071 52.7133 68.0671 52.0133 68.3205 51.32C68.5738 50.64 68.8338 49.9533 69.1005 49.26H70.7805ZM83.0911 48.38C83.0911 49.5533 82.8644 50.5533 82.4111 51.38C81.9711 52.2067 81.3644 52.8333 80.5911 53.26C79.8178 53.7 78.9311 53.94 77.9311 53.98V52.1C78.8644 52.0467 79.6311 51.7133 80.2311 51.1C80.8444 50.5 81.1511 49.5733 81.1511 48.32V36.54H83.0911V48.38ZM89.4158 51.32C88.6691 51.32 88.0491 51.0933 87.5558 50.64C87.0758 50.1733 86.8224 49.5733 86.7958 48.84V42.72H88.6558V48.18C88.6824 48.6333 88.8091 49 89.0358 49.28C89.2758 49.56 89.6491 49.7067 90.1558 49.72C90.6224 49.72 91.0358 49.5867 91.3958 49.32C91.7691 49.04 92.0691 48.6667 92.2958 48.2C92.5224 47.72 92.6358 47.18 92.6358 46.58V42.72H94.4958V51H92.7958L92.6358 48.96L92.7358 49.32C92.5758 49.7067 92.3291 50.0533 91.9958 50.36C91.6758 50.6533 91.2958 50.8867 90.8558 51.06C90.4158 51.2333 89.9358 51.32 89.4158 51.32ZM97.7138 35.52H99.5738V51H97.7138V35.52ZM103.492 54.98L108.952 42.72H110.672L105.332 54.98H103.492ZM105.532 51.06L101.552 42.72H103.652L106.992 50.12L105.532 51.06ZM114.355 49.26C114.061 49.9533 113.768 50.64 113.475 51.32C113.195 52.0133 112.908 52.7133 112.615 53.42H111.115C111.381 52.7133 111.641 52.0133 111.895 51.32C112.148 50.64 112.408 49.9533 112.675 49.26H114.355ZM122.505 51C123.359 50.1733 124.172 49.36 124.945 48.56C125.719 47.76 126.412 46.9867 127.025 46.24C127.652 45.4933 128.145 44.7733 128.505 44.08C128.865 43.3733 129.045 42.6933 129.045 42.04C129.045 41.6 128.972 41.2267 128.825 40.92C128.679 40.6 128.485 40.34 128.245 40.14C128.019 39.94 127.759 39.7933 127.465 39.7C127.172 39.5933 126.872 39.54 126.565 39.54C126.125 39.54 125.752 39.6133 125.445 39.76C125.139 39.8933 124.885 40.0733 124.685 40.3C124.499 40.5267 124.359 40.7667 124.265 41.02C124.185 41.2733 124.145 41.5267 124.145 41.78C124.145 42.22 124.212 42.62 124.345 42.98C124.479 43.3267 124.672 43.6333 124.925 43.9L123.725 44.96C123.419 44.76 123.152 44.48 122.925 44.12C122.712 43.76 122.545 43.3733 122.425 42.96C122.319 42.5333 122.265 42.1533 122.265 41.82C122.265 41.1 122.439 40.4267 122.785 39.8C123.145 39.16 123.665 38.6467 124.345 38.26C125.039 37.8733 125.879 37.68 126.865 37.68C127.705 37.68 128.439 37.8733 129.065 38.26C129.692 38.6467 130.179 39.16 130.525 39.8C130.872 40.4267 131.045 41.12 131.045 41.88C131.045 42.5467 130.912 43.2 130.645 43.84C130.379 44.48 130.019 45.1133 129.565 45.74C129.125 46.3667 128.632 46.9867 128.085 47.6C127.552 48.2 127.019 48.8067 126.485 49.42L125.645 49.14H131.485V51H122.505ZM138.584 51.06C137.77 51.06 137.024 50.9067 136.344 50.6C135.664 50.2933 135.077 49.8533 134.584 49.28C134.104 48.6933 133.73 47.9867 133.464 47.16C133.197 46.3333 133.064 45.4067 133.064 44.38C133.064 43.26 133.19 42.2867 133.444 41.46C133.697 40.62 134.064 39.92 134.544 39.36C135.037 38.8 135.624 38.3867 136.304 38.12C136.984 37.84 137.744 37.7 138.584 37.7C139.397 37.7 140.137 37.8533 140.804 38.16C141.484 38.4667 142.064 38.9133 142.544 39.5C143.037 40.0733 143.417 40.7733 143.684 41.6C143.964 42.4133 144.104 43.34 144.104 44.38C144.104 45.4333 143.964 46.3733 143.684 47.2C143.417 48.0267 143.037 48.7267 142.544 49.3C142.064 49.8733 141.484 50.3133 140.804 50.62C140.137 50.9133 139.397 51.06 138.584 51.06ZM138.564 49.2C139.337 49.2 139.984 49 140.504 48.6C141.037 48.1867 141.437 47.6133 141.704 46.88C141.97 46.1467 142.104 45.3 142.104 44.34C142.104 43.38 141.97 42.5467 141.704 41.84C141.437 41.12 141.037 40.56 140.504 40.16C139.984 39.76 139.337 39.56 138.564 39.56C137.79 39.56 137.144 39.7667 136.624 40.18C136.104 40.58 135.71 41.14 135.444 41.86C135.19 42.58 135.064 43.42 135.064 44.38C135.064 45.3267 135.19 46.1667 135.444 46.9C135.71 47.62 136.104 48.1867 136.624 48.6C137.144 49 137.79 49.2 138.564 49.2ZM145.865 51C146.718 50.1733 147.531 49.36 148.305 48.56C149.078 47.76 149.771 46.9867 150.385 46.24C151.011 45.4933 151.505 44.7733 151.865 44.08C152.225 43.3733 152.405 42.6933 152.405 42.04C152.405 41.6 152.331 41.2267 152.185 40.92C152.038 40.6 151.845 40.34 151.605 40.14C151.378 39.94 151.118 39.7933 150.825 39.7C150.531 39.5933 150.231 39.54 149.925 39.54C149.485 39.54 149.111 39.6133 148.805 39.76C148.498 39.8933 148.245 40.0733 148.045 40.3C147.858 40.5267 147.718 40.7667 147.625 41.02C147.545 41.2733 147.505 41.5267 147.505 41.78C147.505 42.22 147.571 42.62 147.705 42.98C147.838 43.3267 148.031 43.6333 148.285 43.9L147.085 44.96C146.778 44.76 146.511 44.48 146.285 44.12C146.071 43.76 145.905 43.3733 145.785 42.96C145.678 42.5333 145.625 42.1533 145.625 41.82C145.625 41.1 145.798 40.4267 146.145 39.8C146.505 39.16 147.025 38.6467 147.705 38.26C148.398 37.8733 149.238 37.68 150.225 37.68C151.065 37.68 151.798 37.8733 152.425 38.26C153.051 38.6467 153.538 39.16 153.885 39.8C154.231 40.4267 154.405 41.12 154.405 41.88C154.405 42.5467 154.271 43.2 154.005 43.84C153.738 44.48 153.378 45.1133 152.925 45.74C152.485 46.3667 151.991 46.9867 151.445 47.6C150.911 48.2 150.378 48.8067 149.845 49.42L149.005 49.14H154.845V51H145.865ZM160.603 51.16C159.896 51.16 159.216 51.0333 158.563 50.78C157.923 50.5267 157.403 50.2 157.003 49.8L158.043 48.3C158.31 48.6067 158.663 48.8533 159.103 49.04C159.556 49.2267 160.003 49.32 160.443 49.32C160.936 49.32 161.37 49.2133 161.743 49C162.13 48.7733 162.43 48.4733 162.643 48.1C162.856 47.7133 162.963 47.2733 162.963 46.78C162.963 46.2467 162.863 45.7733 162.663 45.36C162.476 44.9467 162.19 44.6267 161.803 44.4C161.43 44.16 160.956 44.04 160.383 44.04C159.916 44.04 159.483 44.1067 159.083 44.24C158.683 44.36 158.27 44.5467 157.843 44.8H157.823V37.84H164.123V39.7H159.503V43.06L159.243 42.66C159.47 42.58 159.723 42.52 160.003 42.48C160.296 42.4267 160.576 42.4 160.843 42.4C161.736 42.4 162.483 42.6 163.083 43C163.696 43.3867 164.156 43.9067 164.463 44.56C164.783 45.2133 164.943 45.9333 164.943 46.72C164.943 47.5467 164.756 48.3 164.383 48.98C164.01 49.6467 163.496 50.18 162.843 50.58C162.19 50.9667 161.443 51.16 160.603 51.16ZM169.472 49.26C169.179 49.9533 168.885 50.64 168.592 51.32C168.312 52.0133 168.025 52.7133 167.732 53.42H166.232C166.499 52.7133 166.759 52.0133 167.012 51.32C167.265 50.64 167.525 49.9533 167.792 49.26H169.472ZM178.643 36.54H187.223V38.4H180.583V43.02H186.403V44.86H180.583V51H178.643V36.54ZM192.326 51.2C191.552 51.2 190.846 51.0333 190.206 50.7C189.579 50.3667 189.079 49.88 188.706 49.24C188.346 48.5867 188.166 47.7933 188.166 46.86C188.166 45.94 188.359 45.1467 188.746 44.48C189.132 43.8 189.646 43.28 190.286 42.92C190.939 42.56 191.652 42.38 192.426 42.38C193.199 42.38 193.852 42.56 194.386 42.92C194.919 43.2667 195.326 43.68 195.606 44.16L195.486 44.48L195.666 42.72H197.386V51H195.526V48.84L195.726 49.32C195.672 49.4533 195.552 49.6267 195.366 49.84C195.192 50.04 194.952 50.2467 194.646 50.46C194.352 50.6733 194.012 50.8533 193.626 51C193.239 51.1333 192.806 51.2 192.326 51.2ZM192.826 49.66C193.292 49.66 193.712 49.5733 194.086 49.4C194.459 49.2267 194.766 48.9867 195.006 48.68C195.259 48.36 195.432 47.98 195.526 47.54V45.92C195.419 45.52 195.232 45.1733 194.966 44.88C194.699 44.5733 194.379 44.34 194.006 44.18C193.632 44.0067 193.219 43.92 192.766 43.92C192.272 43.92 191.819 44.04 191.406 44.28C190.992 44.52 190.659 44.8533 190.406 45.28C190.166 45.7067 190.046 46.2067 190.046 46.78C190.046 47.3133 190.172 47.8 190.426 48.24C190.679 48.68 191.019 49.0267 191.446 49.28C191.872 49.5333 192.332 49.66 192.826 49.66ZM200.604 42.72H202.464V51H200.604V42.72ZM200.464 39.72C200.464 39.4267 200.578 39.18 200.804 38.98C201.044 38.78 201.304 38.68 201.584 38.68C201.864 38.68 202.111 38.78 202.324 38.98C202.551 39.18 202.664 39.4267 202.664 39.72C202.664 40.0267 202.551 40.28 202.324 40.48C202.111 40.6667 201.864 40.76 201.584 40.76C201.304 40.76 201.044 40.66 200.804 40.46C200.578 40.26 200.464 40.0133 200.464 39.72ZM207.343 42.72L207.523 45.12L207.423 44.8C207.636 44.2933 207.943 43.8667 208.343 43.52C208.756 43.16 209.183 42.8867 209.623 42.7C210.076 42.5 210.469 42.4 210.803 42.4L210.703 44.24C210.076 44.2 209.523 44.32 209.043 44.6C208.576 44.88 208.203 45.2533 207.923 45.72C207.656 46.1867 207.523 46.6867 207.523 47.22V51H205.683V42.72H207.343ZM214.862 42.72L215.022 44.58L214.942 44.42C215.249 43.7933 215.682 43.3 216.242 42.94C216.815 42.58 217.469 42.4 218.202 42.4C218.669 42.4 219.082 42.4733 219.442 42.62C219.802 42.7667 220.095 42.98 220.322 43.26C220.562 43.5267 220.715 43.86 220.782 44.26L220.682 44.32C221.002 43.72 221.442 43.2533 222.002 42.92C222.575 42.5733 223.175 42.4 223.802 42.4C224.615 42.4 225.255 42.6333 225.722 43.1C226.202 43.5533 226.449 44.1467 226.462 44.88V51H224.602V45.54C224.589 45.1133 224.482 44.76 224.282 44.48C224.095 44.1867 223.762 44.0267 223.282 44C222.802 44 222.369 44.1467 221.982 44.44C221.609 44.7333 221.315 45.1133 221.102 45.58C220.889 46.0333 220.775 46.5267 220.762 47.06V51H218.902V45.54C218.889 45.1133 218.775 44.76 218.562 44.48C218.362 44.1867 218.022 44.0267 217.542 44C217.049 44 216.615 44.1467 216.242 44.44C215.869 44.7333 215.575 45.1133 215.362 45.58C215.162 46.0467 215.062 46.5467 215.062 47.08V51H213.202V42.72H214.862ZM228.986 46.78C228.986 45.9533 229.179 45.2067 229.566 44.54C229.966 43.8733 230.513 43.3467 231.206 42.96C231.899 42.5733 232.686 42.38 233.566 42.38C234.473 42.38 235.266 42.5733 235.946 42.96C236.626 43.3467 237.153 43.8733 237.526 44.54C237.899 45.2067 238.086 45.9533 238.086 46.78C238.086 47.6067 237.899 48.36 237.526 49.04C237.153 49.7067 236.619 50.2333 235.926 50.62C235.246 51.0067 234.453 51.2 233.546 51.2C232.666 51.2 231.879 51.02 231.186 50.66C230.506 50.2867 229.966 49.7733 229.566 49.12C229.179 48.4533 228.986 47.6733 228.986 46.78ZM230.846 46.8C230.846 47.3333 230.966 47.82 231.206 48.26C231.446 48.6867 231.766 49.0267 232.166 49.28C232.579 49.5333 233.033 49.66 233.526 49.66C234.046 49.66 234.506 49.5333 234.906 49.28C235.319 49.0267 235.639 48.6867 235.866 48.26C236.093 47.82 236.206 47.3333 236.206 46.8C236.206 46.2667 236.093 45.7867 235.866 45.36C235.639 44.92 235.319 44.5733 234.906 44.32C234.506 44.0533 234.046 43.92 233.526 43.92C233.019 43.92 232.559 44.0533 232.146 44.32C231.746 44.5867 231.426 44.94 231.186 45.38C230.959 45.8067 230.846 46.28 230.846 46.8ZM242.264 42.72L242.424 44.74L242.344 44.42C242.611 43.8067 243.044 43.32 243.644 42.96C244.244 42.5867 244.938 42.4 245.724 42.4C246.511 42.4 247.151 42.6333 247.644 43.1C248.151 43.5533 248.411 44.1467 248.424 44.88V51H246.544V45.54C246.531 45.0867 246.398 44.72 246.144 44.44C245.904 44.1467 245.524 44 245.004 44C244.524 44 244.091 44.1333 243.704 44.4C243.318 44.6667 243.011 45.0333 242.784 45.5C242.571 45.9667 242.464 46.5067 242.464 47.12V51H240.604V42.72H242.264ZM252.459 39.08H254.319V42.76H256.599V44.22H254.319V51H252.459V44.22H250.939V42.76H252.459V39.08ZM264.195 51L270.515 35.94H270.635L276.935 51H274.715L269.995 38.98L271.375 38.08L266.095 51H264.195ZM267.895 45.52H273.275L273.915 47.2H267.335L267.895 45.52ZM280.858 42.72L281.018 44.58L280.938 44.42C281.245 43.7933 281.678 43.3 282.238 42.94C282.811 42.58 283.465 42.4 284.198 42.4C284.665 42.4 285.078 42.4733 285.438 42.62C285.798 42.7667 286.091 42.98 286.318 43.26C286.558 43.5267 286.711 43.86 286.778 44.26L286.678 44.32C286.998 43.72 287.438 43.2533 287.998 42.92C288.571 42.5733 289.171 42.4 289.798 42.4C290.611 42.4 291.251 42.6333 291.718 43.1C292.198 43.5533 292.445 44.1467 292.458 44.88V51H290.598V45.54C290.585 45.1133 290.478 44.76 290.278 44.48C290.091 44.1867 289.758 44.0267 289.278 44C288.798 44 288.365 44.1467 287.978 44.44C287.605 44.7333 287.311 45.1133 287.098 45.58C286.885 46.0333 286.771 46.5267 286.758 47.06V51H284.898V45.54C284.885 45.1133 284.771 44.76 284.558 44.48C284.358 44.1867 284.018 44.0267 283.538 44C283.045 44 282.611 44.1467 282.238 44.44C281.865 44.7333 281.571 45.1133 281.358 45.58C281.158 46.0467 281.058 46.5467 281.058 47.08V51H279.198V42.72H280.858ZM300.742 51.2C299.982 51.2 299.309 51.0333 298.722 50.7C298.149 50.3667 297.689 49.9467 297.342 49.44L297.562 48.86V51H295.702V35.52H297.542V44.62L297.482 43.92C297.815 43.4667 298.289 43.1 298.902 42.82C299.529 42.5267 300.222 42.38 300.982 42.38C301.729 42.38 302.409 42.56 303.022 42.92C303.635 43.28 304.122 43.7867 304.482 44.44C304.855 45.08 305.042 45.8467 305.042 46.74C305.042 47.6733 304.842 48.4733 304.442 49.14C304.055 49.8067 303.535 50.32 302.882 50.68C302.229 51.0267 301.515 51.2 300.742 51.2ZM300.362 49.62C300.895 49.62 301.375 49.4933 301.802 49.24C302.229 48.9867 302.562 48.6467 302.802 48.22C303.042 47.78 303.162 47.28 303.162 46.72C303.162 46.1867 303.035 45.7067 302.782 45.28C302.542 44.84 302.209 44.4933 301.782 44.24C301.369 43.9867 300.895 43.86 300.362 43.86C299.909 43.86 299.489 43.9467 299.102 44.12C298.715 44.2933 298.389 44.5333 298.122 44.84C297.855 45.1333 297.669 45.48 297.562 45.88V47.54C297.669 47.94 297.849 48.3 298.102 48.62C298.355 48.9267 298.675 49.1733 299.062 49.36C299.449 49.5333 299.882 49.62 300.362 49.62ZM310.998 51.2C310.224 51.2 309.518 51.0333 308.877 50.7C308.251 50.3667 307.751 49.88 307.378 49.24C307.018 48.5867 306.838 47.7933 306.838 46.86C306.838 45.94 307.031 45.1467 307.418 44.48C307.804 43.8 308.318 43.28 308.958 42.92C309.611 42.56 310.324 42.38 311.098 42.38C311.871 42.38 312.524 42.56 313.058 42.92C313.591 43.2667 313.998 43.68 314.278 44.16L314.158 44.48L314.338 42.72H316.058V51H314.198V48.84L314.398 49.32C314.344 49.4533 314.224 49.6267 314.038 49.84C313.864 50.04 313.624 50.2467 313.318 50.46C313.024 50.6733 312.684 50.8533 312.298 51C311.911 51.1333 311.478 51.2 310.998 51.2ZM311.498 49.66C311.964 49.66 312.384 49.5733 312.758 49.4C313.131 49.2267 313.438 48.9867 313.678 48.68C313.931 48.36 314.104 47.98 314.198 47.54V45.92C314.091 45.52 313.904 45.1733 313.638 44.88C313.371 44.5733 313.051 44.34 312.678 44.18C312.304 44.0067 311.891 43.92 311.438 43.92C310.944 43.92 310.491 44.04 310.078 44.28C309.664 44.52 309.331 44.8533 309.078 45.28C308.838 45.7067 308.718 46.2067 308.718 46.78C308.718 47.3133 308.844 47.8 309.098 48.24C309.351 48.68 309.691 49.0267 310.118 49.28C310.544 49.5333 311.004 49.66 311.498 49.66ZM321.596 51.16C321.01 51.16 320.436 51.06 319.876 50.86C319.33 50.6467 318.876 50.3333 318.516 49.92L319.296 48.84C319.643 49.1733 319.996 49.4267 320.356 49.6C320.73 49.76 321.096 49.84 321.456 49.84C321.723 49.84 321.97 49.8067 322.196 49.74C322.423 49.6733 322.603 49.5667 322.736 49.42C322.883 49.26 322.956 49.0467 322.956 48.78C322.956 48.4867 322.856 48.2533 322.656 48.08C322.47 47.9067 322.223 47.7667 321.916 47.66C321.623 47.5533 321.31 47.4533 320.976 47.36C320.296 47.1333 319.776 46.82 319.416 46.42C319.056 46.02 318.876 45.5333 318.876 44.96C318.876 44.52 318.983 44.1133 319.196 43.74C319.423 43.3533 319.75 43.04 320.176 42.8C320.616 42.56 321.156 42.44 321.796 42.44C322.37 42.44 322.883 42.5133 323.336 42.66C323.79 42.7933 324.216 43.02 324.616 43.34L323.876 44.5C323.636 44.2467 323.35 44.06 323.016 43.94C322.683 43.82 322.383 43.7533 322.116 43.74C321.89 43.7267 321.67 43.76 321.456 43.84C321.256 43.92 321.09 44.0333 320.956 44.18C320.823 44.3267 320.756 44.5 320.756 44.7C320.756 44.98 320.85 45.2067 321.036 45.38C321.223 45.5533 321.463 45.6933 321.756 45.8C322.063 45.8933 322.363 45.9933 322.656 46.1C323.07 46.22 323.436 46.38 323.756 46.58C324.076 46.78 324.33 47.0267 324.516 47.32C324.716 47.6133 324.816 47.98 324.816 48.42C324.816 48.9133 324.696 49.3733 324.456 49.8C324.23 50.2133 323.876 50.5467 323.396 50.8C322.93 51.04 322.33 51.16 321.596 51.16ZM329.741 51.16C329.154 51.16 328.581 51.06 328.021 50.86C327.474 50.6467 327.021 50.3333 326.661 49.92L327.441 48.84C327.787 49.1733 328.141 49.4267 328.501 49.6C328.874 49.76 329.241 49.84 329.601 49.84C329.867 49.84 330.114 49.8067 330.341 49.74C330.567 49.6733 330.747 49.5667 330.881 49.42C331.027 49.26 331.101 49.0467 331.101 48.78C331.101 48.4867 331.001 48.2533 330.801 48.08C330.614 47.9067 330.367 47.7667 330.061 47.66C329.767 47.5533 329.454 47.4533 329.121 47.36C328.441 47.1333 327.921 46.82 327.561 46.42C327.201 46.02 327.021 45.5333 327.021 44.96C327.021 44.52 327.127 44.1133 327.341 43.74C327.567 43.3533 327.894 43.04 328.321 42.8C328.761 42.56 329.301 42.44 329.941 42.44C330.514 42.44 331.027 42.5133 331.481 42.66C331.934 42.7933 332.361 43.02 332.761 43.34L332.021 44.5C331.781 44.2467 331.494 44.06 331.161 43.94C330.827 43.82 330.527 43.7533 330.261 43.74C330.034 43.7267 329.814 43.76 329.601 43.84C329.401 43.92 329.234 44.0333 329.101 44.18C328.967 44.3267 328.901 44.5 328.901 44.7C328.901 44.98 328.994 45.2067 329.181 45.38C329.367 45.5533 329.607 45.6933 329.901 45.8C330.207 45.8933 330.507 45.9933 330.801 46.1C331.214 46.22 331.581 46.38 331.901 46.58C332.221 46.78 332.474 47.0267 332.661 47.32C332.861 47.6133 332.961 47.98 332.961 48.42C332.961 48.9133 332.841 49.3733 332.601 49.8C332.374 50.2133 332.021 50.5467 331.541 50.8C331.074 51.04 330.474 51.16 329.741 51.16ZM339.005 51.2C338.232 51.2 337.525 51.0333 336.885 50.7C336.259 50.3667 335.759 49.88 335.385 49.24C335.025 48.5867 334.845 47.7933 334.845 46.86C334.845 45.94 335.039 45.1467 335.425 44.48C335.812 43.8 336.325 43.28 336.965 42.92C337.619 42.56 338.332 42.38 339.105 42.38C339.879 42.38 340.532 42.56 341.065 42.92C341.599 43.2667 342.005 43.68 342.285 44.16L342.165 44.48L342.345 42.72H344.065V51H342.205V48.84L342.405 49.32C342.352 49.4533 342.232 49.6267 342.045 49.84C341.872 50.04 341.632 50.2467 341.325 50.46C341.032 50.6733 340.692 50.8533 340.305 51C339.919 51.1333 339.485 51.2 339.005 51.2ZM339.505 49.66C339.972 49.66 340.392 49.5733 340.765 49.4C341.139 49.2267 341.445 48.9867 341.685 48.68C341.939 48.36 342.112 47.98 342.205 47.54V45.92C342.099 45.52 341.912 45.1733 341.645 44.88C341.379 44.5733 341.059 44.34 340.685 44.18C340.312 44.0067 339.899 43.92 339.445 43.92C338.952 43.92 338.499 44.04 338.085 44.28C337.672 44.52 337.339 44.8533 337.085 45.28C336.845 45.7067 336.725 46.2067 336.725 46.78C336.725 47.3133 336.852 47.8 337.105 48.24C337.359 48.68 337.699 49.0267 338.125 49.28C338.552 49.5333 339.012 49.66 339.505 49.66ZM350.644 51.2C349.884 51.2 349.191 51.02 348.564 50.66C347.951 50.2867 347.464 49.7667 347.104 49.1C346.744 48.42 346.564 47.64 346.564 46.76C346.564 45.84 346.751 45.0533 347.124 44.4C347.511 43.7467 348.031 43.2467 348.684 42.9C349.337 42.5533 350.071 42.38 350.884 42.38C351.537 42.38 352.157 42.52 352.744 42.8C353.344 43.08 353.811 43.4667 354.144 43.96L354.064 44.62V35.52H355.904V51H354.044V48.94L354.244 49.46C353.857 49.9667 353.357 50.3867 352.744 50.72C352.131 51.04 351.431 51.2 350.644 51.2ZM351.224 49.62C351.717 49.62 352.157 49.5333 352.544 49.36C352.931 49.1733 353.251 48.92 353.504 48.6C353.757 48.28 353.937 47.9 354.044 47.46V45.9C353.937 45.5 353.744 45.1533 353.464 44.86C353.197 44.5533 352.871 44.3133 352.484 44.14C352.111 43.9533 351.691 43.86 351.224 43.86C350.717 43.86 350.251 43.9867 349.824 44.24C349.411 44.48 349.077 44.8133 348.824 45.24C348.571 45.6667 348.444 46.16 348.444 46.72C348.444 47.2667 348.571 47.76 348.824 48.2C349.077 48.6267 349.417 48.9733 349.844 49.24C350.271 49.4933 350.731 49.62 351.224 49.62ZM358.42 46.78C358.42 45.9533 358.613 45.2067 359 44.54C359.4 43.8733 359.946 43.3467 360.64 42.96C361.333 42.5733 362.12 42.38 363 42.38C363.906 42.38 364.7 42.5733 365.38 42.96C366.06 43.3467 366.586 43.8733 366.96 44.54C367.333 45.2067 367.52 45.9533 367.52 46.78C367.52 47.6067 367.333 48.36 366.96 49.04C366.586 49.7067 366.053 50.2333 365.36 50.62C364.68 51.0067 363.886 51.2 362.98 51.2C362.1 51.2 361.313 51.02 360.62 50.66C359.94 50.2867 359.4 49.7733 359 49.12C358.613 48.4533 358.42 47.6733 358.42 46.78ZM360.28 46.8C360.28 47.3333 360.4 47.82 360.64 48.26C360.88 48.6867 361.2 49.0267 361.6 49.28C362.013 49.5333 362.466 49.66 362.96 49.66C363.48 49.66 363.94 49.5333 364.34 49.28C364.753 49.0267 365.073 48.6867 365.3 48.26C365.526 47.82 365.64 47.3333 365.64 46.8C365.64 46.2667 365.526 45.7867 365.3 45.36C365.073 44.92 364.753 44.5733 364.34 44.32C363.94 44.0533 363.48 43.92 362.96 43.92C362.453 43.92 361.993 44.0533 361.58 44.32C361.18 44.5867 360.86 44.94 360.62 45.38C360.393 45.8067 360.28 46.28 360.28 46.8ZM371.698 42.72L371.878 45.12L371.778 44.8C371.991 44.2933 372.298 43.8667 372.698 43.52C373.111 43.16 373.538 42.8867 373.978 42.7C374.431 42.5 374.825 42.4 375.158 42.4L375.058 44.24C374.431 44.2 373.878 44.32 373.398 44.6C372.931 44.88 372.558 45.2533 372.278 45.72C372.011 46.1867 371.878 46.6867 371.878 47.22V51H370.038V42.72H371.698ZM391.826 39.12C391.332 38.8667 390.792 38.6467 390.206 38.46C389.619 38.2733 389.046 38.18 388.486 38.18C387.712 38.18 387.092 38.36 386.626 38.72C386.172 39.08 385.946 39.56 385.946 40.16C385.946 40.6133 386.092 41 386.386 41.32C386.679 41.6267 387.066 41.8933 387.546 42.12C388.026 42.3467 388.526 42.56 389.046 42.76C389.499 42.9333 389.946 43.1267 390.386 43.34C390.826 43.5533 391.219 43.82 391.566 44.14C391.926 44.46 392.206 44.8533 392.406 45.32C392.619 45.7867 392.726 46.3667 392.726 47.06C392.726 47.82 392.532 48.5133 392.146 49.14C391.772 49.7667 391.232 50.26 390.526 50.62C389.819 50.98 388.979 51.16 388.006 51.16C387.366 51.16 386.752 51.0867 386.166 50.94C385.592 50.7933 385.059 50.6067 384.566 50.38C384.072 50.14 383.632 49.8933 383.246 49.64L384.106 48.12C384.426 48.3467 384.792 48.5667 385.206 48.78C385.619 48.98 386.052 49.1467 386.506 49.28C386.959 49.4 387.399 49.46 387.826 49.46C388.279 49.46 388.726 49.38 389.166 49.22C389.619 49.0467 389.992 48.7867 390.286 48.44C390.579 48.0933 390.726 47.6333 390.726 47.06C390.726 46.5667 390.592 46.16 390.326 45.84C390.072 45.5067 389.732 45.2267 389.306 45C388.879 44.76 388.426 44.5467 387.946 44.36C387.492 44.1867 387.032 44 386.566 43.8C386.099 43.5867 385.666 43.3333 385.266 43.04C384.866 42.7333 384.546 42.36 384.306 41.92C384.066 41.48 383.946 40.9467 383.946 40.32C383.946 39.56 384.126 38.9 384.486 38.34C384.859 37.7667 385.366 37.32 386.006 37C386.646 36.6667 387.379 36.4867 388.206 36.46C389.139 36.46 389.959 36.5733 390.666 36.8C391.386 37.0267 392.019 37.3067 392.566 37.64L391.826 39.12ZM399.366 51.2C398.42 51.2 397.606 51.0133 396.926 50.64C396.246 50.2533 395.72 49.7333 395.346 49.08C394.986 48.4133 394.806 47.6533 394.806 46.8C394.806 45.9867 395.013 45.2467 395.426 44.58C395.84 43.9133 396.393 43.38 397.086 42.98C397.78 42.58 398.553 42.38 399.406 42.38C400.5 42.38 401.406 42.7 402.126 43.34C402.846 43.98 403.333 44.86 403.586 45.98L396.766 48.38L396.326 47.28L401.926 45.24L401.526 45.5C401.366 45.06 401.1 44.68 400.726 44.36C400.353 44.0267 399.866 43.86 399.266 43.86C398.76 43.86 398.306 43.9867 397.906 44.24C397.506 44.48 397.193 44.8133 396.966 45.24C396.74 45.6667 396.626 46.1533 396.626 46.7C396.626 47.2733 396.746 47.78 396.986 48.22C397.226 48.6467 397.553 48.9867 397.966 49.24C398.393 49.48 398.873 49.6 399.406 49.6C399.766 49.6 400.113 49.5333 400.446 49.4C400.793 49.2667 401.113 49.0933 401.406 48.88L402.266 50.26C401.853 50.54 401.386 50.7667 400.866 50.94C400.36 51.1133 399.86 51.2 399.366 51.2ZM405.197 46.78C405.197 45.9533 405.39 45.2067 405.777 44.54C406.177 43.8733 406.724 43.3467 407.417 42.96C408.11 42.5733 408.897 42.38 409.777 42.38C410.684 42.38 411.477 42.5733 412.157 42.96C412.837 43.3467 413.364 43.8733 413.737 44.54C414.11 45.2067 414.297 45.9533 414.297 46.78C414.297 47.6067 414.11 48.36 413.737 49.04C413.364 49.7067 412.83 50.2333 412.137 50.62C411.457 51.0067 410.664 51.2 409.757 51.2C408.877 51.2 408.09 51.02 407.397 50.66C406.717 50.2867 406.177 49.7733 405.777 49.12C405.39 48.4533 405.197 47.6733 405.197 46.78ZM407.057 46.8C407.057 47.3333 407.177 47.82 407.417 48.26C407.657 48.6867 407.977 49.0267 408.377 49.28C408.79 49.5333 409.244 49.66 409.737 49.66C410.257 49.66 410.717 49.5333 411.117 49.28C411.53 49.0267 411.85 48.6867 412.077 48.26C412.304 47.82 412.417 47.3333 412.417 46.8C412.417 46.2667 412.304 45.7867 412.077 45.36C411.85 44.92 411.53 44.5733 411.117 44.32C410.717 44.0533 410.257 43.92 409.737 43.92C409.23 43.92 408.77 44.0533 408.357 44.32C407.957 44.5867 407.637 44.94 407.397 45.38C407.17 45.8067 407.057 46.28 407.057 46.8ZM419.435 51.32C418.689 51.32 418.069 51.0933 417.575 50.64C417.095 50.1733 416.842 49.5733 416.815 48.84V42.72H418.675V48.18C418.702 48.6333 418.829 49 419.055 49.28C419.295 49.56 419.669 49.7067 420.175 49.72C420.642 49.72 421.055 49.5867 421.415 49.32C421.789 49.04 422.089 48.6667 422.315 48.2C422.542 47.72 422.655 47.18 422.655 46.58V42.72H424.515V51H422.815L422.655 48.96L422.755 49.32C422.595 49.7067 422.349 50.0533 422.015 50.36C421.695 50.6533 421.315 50.8867 420.875 51.06C420.435 51.2333 419.955 51.32 419.435 51.32ZM427.733 35.52H429.593V51H427.733V35.52ZM451.04 36.54V51H449.12V44.66H441.54V51H439.6V36.54H441.54V42.82H449.12V36.54H451.04ZM454.025 46.78C454.025 45.9533 454.218 45.2067 454.605 44.54C455.005 43.8733 455.552 43.3467 456.245 42.96C456.938 42.5733 457.725 42.38 458.605 42.38C459.512 42.38 460.305 42.5733 460.985 42.96C461.665 43.3467 462.192 43.8733 462.565 44.54C462.938 45.2067 463.125 45.9533 463.125 46.78C463.125 47.6067 462.938 48.36 462.565 49.04C462.192 49.7067 461.658 50.2333 460.965 50.62C460.285 51.0067 459.492 51.2 458.585 51.2C457.705 51.2 456.918 51.02 456.225 50.66C455.545 50.2867 455.005 49.7733 454.605 49.12C454.218 48.4533 454.025 47.6733 454.025 46.78ZM455.885 46.8C455.885 47.3333 456.005 47.82 456.245 48.26C456.485 48.6867 456.805 49.0267 457.205 49.28C457.618 49.5333 458.072 49.66 458.565 49.66C459.085 49.66 459.545 49.5333 459.945 49.28C460.358 49.0267 460.678 48.6867 460.905 48.26C461.132 47.82 461.245 47.3333 461.245 46.8C461.245 46.2667 461.132 45.7867 460.905 45.36C460.678 44.92 460.358 44.5733 459.945 44.32C459.545 44.0533 459.085 43.92 458.565 43.92C458.058 43.92 457.598 44.0533 457.185 44.32C456.785 44.5867 456.465 44.94 456.225 45.38C455.998 45.8067 455.885 46.28 455.885 46.8ZM466.443 39.08H468.303V42.76H470.583V44.22H468.303V51H466.443V44.22H464.923V42.76H466.443V39.08ZM476.671 51.2C475.724 51.2 474.911 51.0133 474.231 50.64C473.551 50.2533 473.024 49.7333 472.651 49.08C472.291 48.4133 472.111 47.6533 472.111 46.8C472.111 45.9867 472.318 45.2467 472.731 44.58C473.144 43.9133 473.698 43.38 474.391 42.98C475.084 42.58 475.858 42.38 476.711 42.38C477.804 42.38 478.711 42.7 479.431 43.34C480.151 43.98 480.638 44.86 480.891 45.98L474.071 48.38L473.631 47.28L479.231 45.24L478.831 45.5C478.671 45.06 478.404 44.68 478.031 44.36C477.658 44.0267 477.171 43.86 476.571 43.86C476.064 43.86 475.611 43.9867 475.211 44.24C474.811 44.48 474.498 44.8133 474.271 45.24C474.044 45.6667 473.931 46.1533 473.931 46.7C473.931 47.2733 474.051 47.78 474.291 48.22C474.531 48.6467 474.858 48.9867 475.271 49.24C475.698 49.48 476.178 49.6 476.711 49.6C477.071 49.6 477.418 49.5333 477.751 49.4C478.098 49.2667 478.418 49.0933 478.711 48.88L479.571 50.26C479.158 50.54 478.691 50.7667 478.171 50.94C477.664 51.1133 477.164 51.2 476.671 51.2ZM483.222 35.52H485.082V51H483.222V35.52Z" fill="white"/>
</svg>
