<svg width="75" height="81" viewBox="0 0 75 81" fill="none" xmlns="http://www.w3.org/2000/svg">
<path d="M74.1013 74.6485V80.2553H9.8617C5.23527 80.2553 1.52234 76.5612 1.52234 71.991C1.52234 69.6257 2.4211 67.5669 3.90922 66.0776C5.39734 64.5882 7.48955 63.7122 9.87643 63.7122H74.116V74.6485H74.1013Z" fill="white"/>
<path d="M2.56841 73.9039C2.56841 71.5385 3.46717 69.4651 4.95529 67.9904C6.44341 66.5157 8.53562 65.625 10.9225 65.625H74.116V63.5516H9.86166C7.47478 63.5516 5.39731 64.4423 3.89445 65.917C2.40633 67.3918 1.50757 69.4651 1.50757 71.8305C1.50757 73.5973 2.09692 75.3786 3.14303 76.7073C2.70101 75.8166 2.55367 74.78 2.55367 73.9039H2.56841Z" fill="white"/>
<path d="M18.2157 63.5662H10.7604V50.5712H14.488H55.4776H57.2604H70.3736V63.5662H33.1116H25.671H18.2157Z" fill="#D3E7FF"/>
<path d="M12.5432 52.4839H16.2708H57.2604H59.0579H70.3736V50.5712H57.2604H55.4776H14.488H10.7604V63.5662H12.5432V52.4839Z" fill="#D3E7FF"/>
<path d="M55.4776 50.5712H14.488V32.1152H57.2604C59.7946 32.1152 62.1815 33.1519 63.817 34.7727C65.4524 36.3934 66.4985 38.7588 66.4985 41.2702C66.4985 46.439 62.3289 50.5712 57.1131 50.5712H55.4776Z" fill="white"/>
<path d="M16.5802 34.32H59.3526C61.4448 34.32 63.375 35.0646 64.8631 36.0867C64.5684 35.6487 64.1117 35.196 63.817 34.758C62.1815 33.1373 59.7946 32.1006 57.2604 32.1006H14.488V50.5565H16.5802V34.3054V34.32Z" fill="white"/>
<path d="M38.1801 9.95054C39.5209 7.87717 41.9078 6.54846 44.5893 6.54846C58.8959 6.54846 49.3631 32.1006 41.6131 32.1006C40.2723 32.1006 39.2262 31.8085 38.1801 31.2099H37.8854C36.8393 31.6479 35.6459 32.1006 34.4525 32.1006C26.5551 32.1006 17.1696 6.54846 31.4762 6.54846C34.3051 6.54846 36.8393 8.1692 38.1801 10.5346C37.8854 10.2426 38.0328 10.0966 38.1801 9.95054Z" fill="#D3E7FF"/>
<path d="M33.1116 7.87719C34.4524 7.87719 35.6459 8.16921 36.692 8.76786C35.3512 7.29314 33.4063 6.40247 31.1815 6.40247C18.2157 6.40247 24.7723 27.5304 32.0803 31.3705C25.671 25.457 21.2067 7.89179 33.1264 7.89179L33.1116 7.87719Z" fill="#D3E7FF"/>
<path d="M40.567 39.4889H36.8394V43.183H40.567V39.4889Z" fill="#464646"/>
<path d="M34.9092 39.4889H31.1815V43.183H34.9092V39.4889Z" fill="#464646"/>
<path d="M29.3987 39.4889H25.671V43.183H29.3987V39.4889Z" fill="#464646"/>
<path d="M23.7262 39.4889H19.9985V43.183H23.7262V39.4889Z" fill="#464646"/>
<path d="M74.1013 80.9855H9.86166C4.79322 80.9855 0.476196 76.8533 0.476196 71.6845C0.476196 69.1731 1.5223 66.9537 3.15776 65.187C4.94055 63.4202 7.1801 62.5295 9.71432 62.5295H10.6131C11.0551 62.5295 11.5119 62.9676 11.5119 63.4202C11.5119 63.8729 11.0698 64.3109 10.6131 64.3109H9.71432C7.78419 64.3109 5.83932 65.0555 4.49854 66.5303C3.15776 68.005 2.25899 69.7717 2.25899 71.6991C2.25899 75.8312 5.54464 79.0873 9.71432 79.0873H73.0552V64.3109H70.2263C69.7842 64.3109 69.3275 63.8729 69.3275 63.4202C69.3275 62.9676 69.7695 62.5295 70.2263 62.5295H73.9539C74.3959 62.5295 74.8527 62.9676 74.8527 63.4202V80.1094C75 80.5474 74.558 81.0001 74.1013 81.0001V80.9855Z" fill="#464646"/>
<path d="M57.2605 51.4471C56.8185 51.4471 56.3617 51.0091 56.3617 50.5565C56.3617 50.1038 56.8037 49.6658 57.2605 49.6658C61.8869 49.6658 65.5999 45.9717 65.5999 41.3869C65.5999 39.1675 64.7011 37.1088 63.213 35.4734C61.5775 33.8527 59.4853 33.108 57.2458 33.108H15.3869V50.6879C15.3869 51.1259 14.9449 51.5786 14.4881 51.5786C14.0314 51.5786 13.5894 51.1405 13.5894 50.6879V32.0713C13.5894 31.6333 14.0314 31.1807 14.4881 31.1807H57.4078C60.0894 31.1807 62.771 32.2174 64.7158 34.1301C66.646 36.0575 67.6921 38.5689 67.6921 41.3723C67.5447 46.8332 62.9183 51.4179 57.2605 51.4179V51.4471Z" fill="#464646"/>
<path d="M70.3736 64.4423H10.7605C10.3184 64.4423 9.86169 64.0043 9.86169 63.5516V50.5566C9.86169 50.1185 10.3037 49.6659 10.7605 49.6659H70.3736C70.8156 49.6659 71.2724 50.1039 71.2724 50.5566V63.5516C71.2724 63.9897 70.8304 64.4423 70.3736 64.4423ZM11.6592 62.5296H69.4896V51.4472H11.6592V62.5296Z" fill="#464646"/>
<path d="M18.2158 64.4423C17.7738 64.4423 17.317 64.0042 17.317 63.5516V56.1634C17.317 55.7253 17.759 55.2727 18.2158 55.2727C18.6725 55.2727 19.1145 55.7107 19.1145 56.1634V63.5516C19.1145 63.9896 18.6725 64.4423 18.2158 64.4423Z" fill="#464646"/>
<path d="M25.6711 64.4423C25.2291 64.4423 24.7723 64.0042 24.7723 63.5516V56.1634C24.7723 55.7253 25.2144 55.2727 25.6711 55.2727C26.1279 55.2727 26.5699 55.7107 26.5699 56.1634V63.5516C26.5699 63.9896 26.1279 64.4423 25.6711 64.4423Z" fill="#464646"/>
<path d="M33.1117 64.4423C32.6696 64.4423 32.2129 64.0042 32.2129 63.5516V56.1634C32.2129 55.7253 32.6549 55.2727 33.1117 55.2727C33.5684 55.2727 34.0104 55.7107 34.0104 56.1634V63.5516C34.0104 63.9896 33.5684 64.4423 33.1117 64.4423Z" fill="#464646"/>
<path d="M74.1013 75.5245H14.4881C14.0461 75.5245 13.5894 75.0865 13.5894 74.6338C13.5894 74.1812 14.0314 73.7432 14.4881 73.7432H74.1013C74.5433 73.7432 75.0001 74.1812 75.0001 74.6338C75.0001 75.0865 74.558 75.5245 74.1013 75.5245Z" fill="#464646"/>
<path d="M74.1013 69.9178H14.4881C14.0461 69.9178 13.5894 69.4798 13.5894 69.0271C13.5894 68.5745 14.0314 68.1365 14.4881 68.1365H74.1013C74.5433 68.1365 75.0001 68.5745 75.0001 69.0271C75.0001 69.4798 74.558 69.9178 74.1013 69.9178Z" fill="#464646"/>
<path d="M55.4776 51.4472C55.0356 51.4472 54.5789 51.0092 54.5789 50.5565V37.5615C54.5789 37.1234 55.0209 36.6708 55.4776 36.6708C55.9344 36.6708 56.3764 37.1088 56.3764 37.5615V50.5565C56.3764 50.9946 55.9344 51.4472 55.4776 51.4472Z" fill="#464646"/>
<path d="M41.4657 32.9912C40.2723 32.9912 38.9315 32.6992 37.8854 32.1005C36.6919 32.6846 35.4985 32.9912 34.3051 32.9912C31.6235 32.9912 28.7946 30.6258 26.4077 26.6397C24.1682 22.7996 22.9747 18.3608 22.9747 14.6813C22.9747 12.0239 23.5641 9.95052 24.9196 8.32978C26.4077 6.56304 28.4999 5.67236 31.3288 5.67236C34.0104 5.67236 36.3973 6.85506 38.0327 8.92843C39.6682 6.85506 42.0551 5.67236 44.7366 5.67236C47.5655 5.67236 49.6577 6.56304 51.1459 8.32978C52.3393 9.95052 53.076 12.0239 53.076 14.6813C53.076 18.3754 51.7352 22.9456 49.643 26.6397C46.9614 30.7718 44.1325 32.9912 41.451 32.9912H41.4657ZM37.5907 30.3338H37.8854C38.0327 30.3338 38.1801 30.3338 38.3274 30.4798C39.3735 30.9178 40.4196 31.2245 41.3036 31.2245C43.2338 31.2245 45.6207 29.1511 47.5655 25.7636C49.4957 22.3615 50.8512 18.0834 50.8512 14.6813C50.8512 12.4619 50.4092 10.6952 49.3631 9.51248C48.317 8.18377 46.6815 7.43911 44.442 7.43911C42.2024 7.43911 40.1249 8.62181 38.9315 10.3886C38.7842 10.5346 38.7842 10.6806 38.6368 10.8266C38.4895 11.1186 38.1948 11.2646 37.7381 11.2646C37.4434 11.2646 37.1487 11.1186 36.8393 10.8266C35.6458 8.75322 33.4063 7.42451 31.0341 7.42451C28.7946 7.42451 27.1591 8.16917 26.113 9.49788C25.2143 10.6806 24.6249 12.4473 24.6249 14.6667C24.6249 21.9089 29.988 31.2099 34.1577 31.2099C35.2038 31.2099 36.2499 30.9178 37.134 30.4652C37.2813 30.3192 37.4286 30.3192 37.576 30.3192L37.5907 30.3338Z" fill="#464646"/>
<path d="M38.1801 10.8267C37.7381 10.8267 37.4287 10.5346 37.2813 10.082C35.3512 2.40177 38.9168 0.182389 39.0641 0.036377L40.1102 1.65711C40.1102 1.65711 37.576 3.42386 39.2115 9.77538C39.3588 10.2134 39.0641 10.8121 38.46 10.9581C38.3127 10.8121 38.1654 10.8121 38.1654 10.8121L38.1801 10.8267Z" fill="#464646"/>
<path d="M40.7143 27.5304C40.4196 27.5304 40.125 27.3844 39.9629 27.0924C39.6682 26.6544 39.8155 26.0557 40.2576 25.7637C42.7918 23.9969 43.5432 20.7409 43.6905 20.7409C43.8379 20.3028 44.2799 19.9962 44.884 19.9962C45.326 20.1422 45.6354 20.5803 45.6354 21.1789C45.6354 21.3249 44.5893 25.165 41.6131 27.2384C41.0237 27.3844 40.8616 27.5304 40.7143 27.5304Z" fill="#464646"/>
</svg>
